<svg xmlns="http://www.w3.org/2000/svg" xmlns:xlink="http://www.w3.org/1999/xlink" viewBox="0 0 180.08 64.51"><defs><style>.cls-1{mask:url(#mask);filter:url(#luminosity-noclip-2);}.cls-2{mix-blend-mode:multiply;fill:url(#linear-gradient);}.cls-3{mask:url(#mask-2);}.cls-4{fill:url(#linear-gradient-2);}.cls-5{fill:#fff;}.cls-6{filter:url(#luminosity-noclip);}</style><filter id="luminosity-noclip" x="0" y="-8365.23" width="180.08" height="32766" filterUnits="userSpaceOnUse" color-interpolation-filters="sRGB"><feFlood flood-color="#fff" result="bg"/><feBlend in="SourceGraphic" in2="bg"/></filter><mask id="mask" x="0" y="-8365.23" width="180.08" height="32766" maskUnits="userSpaceOnUse"><g class="cls-6"/></mask><linearGradient id="linear-gradient" x1="100.86" y1="-321.99" x2="280.94" y2="-321.99" gradientTransform="translate(280.94 -289.12) rotate(180)" gradientUnits="userSpaceOnUse"><stop offset="0"/><stop offset="0.5" stop-color="#fff"/><stop offset="1"/></linearGradient><filter id="luminosity-noclip-2" x="0" y="32.54" width="180.08" height="0.67" filterUnits="userSpaceOnUse" color-interpolation-filters="sRGB"><feFlood flood-color="#fff" result="bg"/><feBlend in="SourceGraphic" in2="bg"/></filter><mask id="mask-2" x="0" y="32.54" width="180.08" height="0.67" maskUnits="userSpaceOnUse"><g class="cls-1"><polygon class="cls-2" points="0 33.21 0 32.54 180.08 32.54 180.08 33.21 0 33.21 0 33.21"/></g></mask><linearGradient id="linear-gradient-2" x1="100.86" y1="-321.99" x2="280.94" y2="-321.99" gradientTransform="translate(280.94 -289.12) rotate(180)" gradientUnits="userSpaceOnUse"><stop offset="0" stop-color="#fff"/><stop offset="0.07" stop-color="#fff"/><stop offset="0.5" stop-color="#fff"/><stop offset="0.93" stop-color="#fff"/><stop offset="1" stop-color="#fff"/></linearGradient></defs><g id="Layer_2" data-name="Layer 2"><g id="Layer_1-2" data-name="Layer 1"><g class="cls-3"><polygon class="cls-4" points="0 33.21 0 32.54 180.08 32.54 180.08 33.21 0 33.21 0 33.21"/></g><path class="cls-5" d="M98.25,46.67a3.09,3.09,0,0,0-2.26-1,3.22,3.22,0,0,0,0,6.43,3.2,3.2,0,0,0,2.24-1v1.07a3.72,3.72,0,0,1-2.21.76,4,4,0,0,1,0-8,3.49,3.49,0,0,1,2.21.76Z"/><path class="cls-5" d="M108.1,48.87a3.87,3.87,0,1,1-3.86-4A3.93,3.93,0,0,1,108.1,48.87Zm-6.91,0a3,3,0,1,0,3-3.21A3.15,3.15,0,0,0,101.19,48.85Z"/><path class="cls-5" d="M132.94,46.67a3.11,3.11,0,0,0-2.26-1,3.22,3.22,0,0,0,0,6.43,3.22,3.22,0,0,0,2.24-1v1.07a3.72,3.72,0,0,1-2.22.76,4,4,0,0,1,0-8,3.51,3.51,0,0,1,2.22.76Z"/><path class="cls-5" d="M111.28,51.93h2v.8h-2.87V45h.82Z"/><path class="cls-5" d="M116.65,51.93h2v.8h-2.87V45h.83Z"/><path class="cls-5" d="M121,45h3.84v.81h-3v2.3h2.94v.8h-2.94v3h3v.8H121Z"/><path class="cls-5" d="M137.5,52.73h-.82V45.78h-1.79V45h4.43v.81H137.5Z"/><path class="cls-5" d="M142.09,52.73h-.82V45h.82Z"/><path class="cls-5" d="M152.06,48.87a3.87,3.87,0,1,1-3.87-4A3.93,3.93,0,0,1,152.06,48.87Zm-6.91,0a3,3,0,1,0,3-3.21A3.14,3.14,0,0,0,145.15,48.85Z"/><path class="cls-5" d="M154.29,44.64,160.08,51V45h.82v8.11l-5.78-6.33v6h-.83Z"/><path class="cls-5" d="M163.34,47.34a1.29,1.29,0,1,1,1.23-1.28A1.25,1.25,0,0,1,163.34,47.34Zm0-2.38a1.1,1.1,0,1,0,1,1.1A1.06,1.06,0,0,0,163.34,45Zm.3,1.8-.31-.57h-.2v.57h-.19V45.35h.46a.42.42,0,0,1,.43.42.39.39,0,0,1-.29.39l.32.6Zm-.26-1.24h-.25V46h.25a.25.25,0,1,0,0-.5Z"/><path class="cls-5" d="M25,49.59a2.93,2.93,0,0,0,.33,1.73,1.89,1.89,0,0,0,1.49.75,1.93,1.93,0,0,0,1.46-.7,2.78,2.78,0,0,0,.36-1.78V45h.83v4.86A2.82,2.82,0,0,1,28.84,52a2.66,2.66,0,0,1-2,.89,2.74,2.74,0,0,1-1.92-.79,2.82,2.82,0,0,1-.72-2.25V45H25Z"/><path class="cls-5" d="M34.33,52.73H33.5v-7H31.71V45h4.43v.8H34.33Z"/><path class="cls-5" d="M45.5,48.87a3.87,3.87,0,1,1-3.86-4A3.93,3.93,0,0,1,45.5,48.87Zm-6.9,0a3,3,0,1,0,3-3.21A3.15,3.15,0,0,0,38.6,48.85Z"/><path class="cls-5" d="M73.74,52.73h-.83V45h1.22a3,3,0,0,1,1.84.41,2.18,2.18,0,0,1,.84,1.77,2.23,2.23,0,0,1-.71,1.67,2.6,2.6,0,0,1-1.76.52h-.6Zm0-4.2h.55c.92,0,1.69-.28,1.69-1.4S75,45.77,74,45.77h-.3Z"/><path class="cls-5" d="M83.82,48.54V45h.82v7.76h-.82V49.35H80v3.38h-.83V45H80v3.57Z"/><path class="cls-5" d="M61,52.73h1l-2-3.59a1.92,1.92,0,0,0,.53-.32,2.23,2.23,0,0,0,.71-1.67,2.18,2.18,0,0,0-.84-1.77A3,3,0,0,0,58.49,45H57.27v7.76h.83v-7h.3c1,0,1.94.1,1.94,1.36,0,1.09-.75,1.39-1.64,1.4Z"/><path class="cls-5" d="M54.83,48.83H51.74a3.75,3.75,0,0,1,.78.81H54a2.26,2.26,0,0,1-.71,1.63,2.85,2.85,0,0,1-.76.52,2.73,2.73,0,0,1-1.18.28,3.07,3.07,0,0,1-2.11-1,3.33,3.33,0,0,1-.86-2v-.19a3.24,3.24,0,0,1,3-3.24,2.84,2.84,0,0,1,2.45,1.46l.6-.58a3.62,3.62,0,0,0-3-1.68,3.94,3.94,0,0,0-3.86,3.75c0,.1,0,.19,0,.28a3.63,3.63,0,0,0,.06.67,3.9,3.9,0,0,0,3.76,3.33,3.49,3.49,0,0,0,1.11-.18,3.62,3.62,0,0,0,.88-.44,3.21,3.21,0,0,0,.75-.68A3.81,3.81,0,0,0,54.83,48.83Z"/><path class="cls-5" d="M15.51,52.73h.9L17.53,50a7.21,7.21,0,0,1,3.16,1.94,7.08,7.08,0,0,1,.66.79h.92L18.93,44.6l-1.88,4.48L16.27,49a3.76,3.76,0,0,1,.47.86Zm2.32-3.46,1.1-2.65,1.64,4.16A7.91,7.91,0,0,0,17.83,49.27Z"/><path class="cls-5" d="M67.42,44.6l-1.89,4.48c-.25,0-.52-.09-.78-.12a3.76,3.76,0,0,1,.47.86h0L64,52.73h.91L66,50a7.37,7.37,0,0,1,3.82,2.73h.92Zm-1.11,4.67,1.08-2.65,1.67,4.16A8,8,0,0,0,66.31,49.27Z"/><path class="cls-5" d="M82.86,61.54a2.86,2.86,0,1,1-5.71,0,2.86,2.86,0,1,1,5.71,0Zm-.68,0a2.18,2.18,0,1,0-4.35,0,2.18,2.18,0,1,0,4.35,0Z"/><path class="cls-5" d="M87.42,64.39h-.68v-5H85.45v-.65h3.26v.65H87.42Z"/><path class="cls-5" d="M91.68,58.69h2.93v.65H92.36v1.59h2.18v.65H92.36v2.16h2.25v.65H91.68Z"/><path class="cls-5" d="M98.56,63.74h1.66v.65H97.88v-5.7h.68Z"/><path class="cls-5" d="M105.52,59.77a.92.92,0,0,0-.87-.54.87.87,0,0,0-.91.81c0,.45.42.68.76.82l.39.15a1.79,1.79,0,0,1,1.35,1.72,1.72,1.72,0,0,1-3.43.18l.69-.15a1,1,0,0,0,1,1.08,1.05,1.05,0,0,0,1-1.11c0-.61-.47-.87-.94-1.08l-.38-.17c-.62-.28-1.18-.65-1.18-1.44a1.52,1.52,0,0,1,1.6-1.48,1.54,1.54,0,0,1,1.4.87Z"/><polygon class="cls-5" points="73.43 58.68 73.43 61.2 70.84 61.2 70.84 58.68 70.16 58.68 70.16 64.38 70.84 64.38 70.84 61.86 73.43 61.86 73.43 64.38 74.12 64.38 74.12 58.68 73.43 58.68"/><path class="cls-5" d="M53.46,19l-.74-1.08h0c0,.36,0,.83,0,1.25v2h-1v-5h1l1.49,2.12,1.49-2.12h1v5h-1.1v-2c0-.42,0-.89,0-1.25h0c-.23.36-.48.72-.73,1.08l-.73,1-.72-1Z"/><path class="cls-5" d="M58.05,18.67a2.61,2.61,0,1,1,2.61,2.58,2.54,2.54,0,0,1-2.61-2.58m4.13,0a1.52,1.52,0,1,0-1.52,1.58,1.54,1.54,0,0,0,1.52-1.58"/><path class="cls-5" d="M64.51,18.77V16.16h1.1v2.57c0,1.05.24,1.53,1.11,1.53s1.1-.44,1.1-1.52V16.16h1.06v2.58a2.89,2.89,0,0,1-.39,1.7,2.4,2.4,0,0,1-3.6,0,2.94,2.94,0,0,1-.38-1.66"/><path class="cls-5" d="M72.38,19.15c-.33-.43-.63-.86-.94-1.29h0c0,.48,0,1,0,1.45v1.86H70.38v-5h1l1.5,2c.32.44.63.86.94,1.3h0c0-.48,0-1,0-1.45V16.17h1v5h-1l-1.5-2Z"/><polygon class="cls-5" points="77.63 17.13 76.01 17.13 76.01 16.16 80.34 16.16 80.34 17.13 78.73 17.13 78.73 21.17 77.63 21.17 77.63 17.13 77.63 17.13"/><path class="cls-5" d="M82.51,16.16h1.06l2,5H84.43L84,20.12H82l-.41,1.05H80.47l2-5Zm-.16,3.09h1.34l-.2-.55c-.15-.4-.33-.9-.46-1.28h0c-.13.38-.31.88-.47,1.3l-.2.53Z"/><polygon class="cls-5" points="86.65 16.16 87.75 16.16 87.75 21.17 86.65 21.17 86.65 16.16 86.65 16.16"/><path class="cls-5" d="M91.29,19.15c-.33-.43-.63-.86-.94-1.29h0c0,.48,0,1,0,1.45v1.86H89.29v-5h1l1.5,2c.33.44.63.86,1,1.3h0c0-.48,0-1,0-1.45V16.17h1v5h-1l-1.5-2Z"/><path class="cls-5" d="M97.21,16.16h1.46c1.44,0,2.09.45,2.09,1.28a1,1,0,0,1-.76,1v0a1.18,1.18,0,0,1,1,1.21c0,.94-.73,1.51-2.26,1.51H97.21v-5Zm1.68,2.08c.46,0,.77-.17.77-.57s-.24-.57-1-.57h-.34v1.14Zm-.17,2c.91,0,1.14-.18,1.14-.62S99.54,19,99,19h-.66v1.24Z"/><path class="cls-5" d="M102.26,16.16h1.57c1.14,0,2.16.32,2.16,1.51a1.39,1.39,0,0,1-1,1.38l1.41,2.12h-1.26l-1.27-2h-.49v2h-1.1v-5Zm1.65,2.21c.63,0,1-.16,1-.62s-.29-.62-1.11-.62h-.42v1.24Z"/><path class="cls-5" d="M107.07,18.67a2.62,2.62,0,1,1,2.62,2.58,2.55,2.55,0,0,1-2.62-2.58m4.13,0a1.52,1.52,0,1,0-1.51,1.58,1.53,1.53,0,0,0,1.51-1.58"/><path class="cls-5" d="M113.35,18.67A2.61,2.61,0,1,1,116,21.25a2.54,2.54,0,0,1-2.61-2.58m4.12,0A1.52,1.52,0,1,0,116,20.25a1.53,1.53,0,0,0,1.51-1.58"/><polygon class="cls-5" points="119.88 16.16 120.98 16.16 120.98 18.38 120.99 18.39 122.74 16.16 124.05 16.16 122.15 18.49 124.21 21.17 122.85 21.17 120.99 18.67 120.98 18.67 120.98 21.17 119.88 21.17 119.88 16.16 119.88 16.16"/><path class="cls-5" d="M21.36,12.06c-.31,0-.62-.06-.93-.06s-.76.05-1.09.05c-.06,0-.09-.05-.09-.11s.2-.45.2-.7S18,7.21,17.89,7c-.06,0-.87,1.4-1,1.58a.63.63,0,0,0-.09.35v2c0,.53.15.56.31,1,0,.06-.07.07-.12.07H16c-.23,0-.54.06-.78.06s-.12-.06-.09-.16a2.83,2.83,0,0,0,.33-1V3.38a3.39,3.39,0,0,0-.18-1.25c0-.08-.12-.13-.12-.22s.1-.08.15-.08c.25,0,.5,0,.75,0h1.35l2.18,0c.62,0,1.36.16,1.36.93S19,5.48,19,5.85c0,.19,1.68,4.92,1.92,5.4a1.89,1.89,0,0,0,.35.56s.15.11.15.15-.06.09-.09.1M18.77,3.14H17.08c-.27,0-.27.11-.27.36V6.43l0,.08c.07,0,.16-.11.21-.17a22.77,22.77,0,0,0,2-3c0-.16-.16-.21-.29-.21"/><path class="cls-5" d="M28.91,2.66v8.21a1.72,1.72,0,0,0,.22.94.48.48,0,0,1,.08.16c0,.09-.14.09-.2.09-.28,0-.56-.06-.83-.06s-1,.08-1-.07.08-.13.12-.18a2.09,2.09,0,0,0,.34-1.34V9.34c0-.16,0-.35-.19-.35H25c-.21,0-.3,0-.31.2a13.67,13.67,0,0,0-.05,1.43,2.36,2.36,0,0,0,.25,1.19c.05,0,.12.09.12.16s-.06.08-.1.08c-.21,0-.59-.06-.9-.06-.13,0-.93.09-.93-.06a.28.28,0,0,1,.06-.15,2.83,2.83,0,0,0,.21-.66c.07-.44,0-1,.07-1.47.18-3.46,1.59-7.76,5.73-7.76.06,0,.14,0,.14.09s-.35.31-.35.68M27.63,3.92c0-.16-.06-.32-.25-.32-1.09,0-2.4,3.05-2.4,4,0,.2.18.17.32.17h2.23c.1,0,.1-.08.1-.17V3.92Z"/><path class="cls-5" d="M38.23,2.08a1.88,1.88,0,0,0-.27,1v7.73a1.69,1.69,0,0,0,.21.88.44.44,0,0,1,.07.19c0,.09-.07.1-.14.1-.24,0-.58,0-.83,0s-.53,0-.81,0h0a.1.1,0,0,1-.11-.1.23.23,0,0,1,.07-.15,2.09,2.09,0,0,0,.25-1.09V8.44L34.78,5.69c-.3-.47-.64-.94-1-1.38,0,0-.09-.14-.15-.14s-.07.31-.07.36v6.3a1.42,1.42,0,0,0,.22.86c0,.05.16.18.16.26s-.1.05-.13.05c-.28,0-.55,0-.83,0s-.67,0-1,0h0c-.06,0-.12,0-.12-.1a.21.21,0,0,1,.08-.15,2,2,0,0,0,.29-1.09V3.14a3.27,3.27,0,0,0-.09-.94A.79.79,0,0,1,32,1.94c0-.08.11-.09.16-.09l.83,0,1.09,0c.06,0,.17,0,.17.08s-.19.23-.19.47a.66.66,0,0,0,.06.22,8.06,8.06,0,0,0,.63.9L36,5.18c.2.28.32.54.5.83,0,0,.07.15.12.15s0-.12,0-.13V3.25a2.47,2.47,0,0,0-.12-1c0-.07-.25-.19-.25-.26s.1-.09.16-.09c.3,0,.56,0,.86,0l.82,0c.06,0,.16,0,.16.08a.25.25,0,0,1,0,.14"/><path class="cls-5" d="M45.82,11.75a2.44,2.44,0,0,1-1,.25c-1.2,0-2.41,0-3.62,0-.07,0-.16,0-.16-.13a3.66,3.66,0,0,0,.38-1.21V5a9.37,9.37,0,0,0-.28-2.9c0-.06-.13-.17-.13-.25s.16-.09.21-.09a5.14,5.14,0,0,1,2,.71C45.5,3.77,47.46,6,47.46,8.71a3.11,3.11,0,0,1-1.64,3M43.17,4.12a.18.18,0,0,0-.11,0c-.27,0-.34.22-.34.46V10c0,.53.34.69.74.69h.8c1.3,0,1.76-1,1.76-2.19,0-1.72-1.62-4.08-2.85-4.34"/><path class="cls-5" d="M68.78,12c-2.84,0-4.1-2.58-4.1-5.09s1.14-5.05,4.1-5.05S73,4.33,73,6.9C73,9.65,71.87,12,68.78,12m0-8.86c-2,0-2.79,2.06-2.79,3.77s.75,3.78,2.79,3.78,2.84-2,2.84-3.78-.79-3.77-2.84-3.77"/><path class="cls-5" d="M80.61,3.13v7.73a3.77,3.77,0,0,0,.28,1.07c0,.09-.07.1-.15.1-.26,0-.51,0-.78,0s-.65,0-.91,0c-.07,0-.15,0-.15-.1a.21.21,0,0,1,.08-.15,2.13,2.13,0,0,0,.31-1.09V7.39a.84.84,0,0,0-.77-.84c-.5,0-.75.36-1.25.36-.21,0-.68,0-.8-.22v4.17a3.77,3.77,0,0,0,.28,1.07c0,.09-.07.1-.14.1-.28,0-.55,0-.83,0s-.54,0-.81,0c-.07,0-.14,0-.14-.1a.23.23,0,0,1,.07-.15,2.14,2.14,0,0,0,.25-1.09V3.17a3.49,3.49,0,0,0-.12-1,.7.7,0,0,1-.12-.28c0-.07.09-.09.15-.09.3,0,.55,0,.84,0h.72c.06,0,.16,0,.16.07a3.69,3.69,0,0,0-.31,1.21V5A.55.55,0,0,0,77,5.6c.55,0,.89-.41,1.45-.41a1.38,1.38,0,0,1,.81.31V3.17A3.68,3.68,0,0,0,78.9,2c0-.07.09-.09.15-.09l.93,0c.25,0,.53,0,.78,0,.06,0,.16,0,.16.07a3.69,3.69,0,0,0-.31,1.21"/><path class="cls-5" d="M137.77,1.68v9a4.56,4.56,0,0,0,.32,1.25c0,.1-.08.12-.17.12-.31,0-.6,0-.9,0s-.76,0-1.06,0c-.09,0-.17,0-.17-.12a.27.27,0,0,1,.08-.18,2.44,2.44,0,0,0,.36-1.26V6.62a1,1,0,0,0-.89-1c-.58,0-.87.41-1.45.41-.24,0-.78,0-.92-.25v4.83a4.56,4.56,0,0,0,.32,1.25c0,.1-.08.12-.17.12-.32,0-.63,0-1,0s-.63,0-.94,0c-.09,0-.17,0-.17-.12a.27.27,0,0,1,.08-.18,2.35,2.35,0,0,0,.29-1.26V1.73A4.17,4.17,0,0,0,131.3.6a.77.77,0,0,1-.14-.32c0-.09.1-.1.17-.1.34,0,.63,0,1,0l.83,0c.07,0,.19,0,.19.09a4.27,4.27,0,0,0-.36,1.4V3.84a.63.63,0,0,0,.65.7c.63,0,1-.48,1.67-.48a1.63,1.63,0,0,1,.94.36V1.73a4.42,4.42,0,0,0-.44-1.42c0-.08.1-.1.17-.1l1.07,0c.29,0,.62,0,.91,0,.07,0,.19,0,.19.09a4.27,4.27,0,0,0-.36,1.4"/><path class="cls-5" d="M89.5,11v.74c0,.25-.13.23-.34.23-1.54,0-3.07,0-4.62,0-.29,0-.57,0-.87,0-.06,0-.1,0-.1-.07a.28.28,0,0,1,.1-.21c.33-.32.31-1.15.31-1.59V2.92a5.54,5.54,0,0,0-.22-1c0-.08.09-.06.13-.06.25,0,.49,0,.74,0,1.38,0,2.75,0,4.14,0,.07,0,.11,0,.11.11,0,.5.06,1,.06,1.48,0,0,0,.09,0,.09a.39.39,0,0,1-.16-.1,2.09,2.09,0,0,0-1.15-.28H85.48c-.17,0-.17.06-.17.15s0,2,0,2.27c0,.07.06.12.19.12h2.95c.16,0,.17.06.17.21V6.7c0,.16,0,.21-.2.21H85.51c-.16,0-.2,0-.2.16v3.07c0,.42.1.53.51.53h2.33a3.35,3.35,0,0,0,1.32-.42s.06.06.06.09c0,.21,0,.49,0,.69"/><path class="cls-5" d="M162.86,11.05v.73c0,.25-.13.24-.33.24-1.55,0-3.08,0-4.63,0-.29,0-.57,0-.86,0-.06,0-.11,0-.11-.07a.29.29,0,0,1,.11-.21c.32-.32.31-1.14.31-1.59V2.94a5.29,5.29,0,0,0-.23-1c0-.07.09-.06.14-.06.25,0,.48,0,.73,0,1.39,0,2.76,0,4.14,0,.07,0,.12,0,.12.1,0,.5.05,1,.05,1.49,0,0,0,.09,0,.09s-.14-.08-.17-.11A2.06,2.06,0,0,0,161,3.14h-2.12c-.18,0-.18.06-.18.15s0,2,0,2.26c0,.07.05.12.19.12h2.94c.16,0,.18.06.18.21V6.7c0,.16-.05.21-.21.21h-2.91c-.17,0-.21,0-.21.16v3.08c0,.43.1.53.51.53h2.33a3.41,3.41,0,0,0,1.33-.41s0,.06,0,.09c0,.2,0,.48,0,.69"/><path class="cls-5" d="M99.64,12c-.19,0-.48.06-.94.06-.06,0-.16,0-.16-.09a6,6,0,0,0,.31-1.13v-.06c0-.9-.13-1.95-.22-2.85-.12-1.35-.15-1.63-.25-2.58,0-.13,0-.33-.09-.33s-1.91,1.89-2,1.89-1.84-1.8-1.94-1.8-.09.19-.09.22C94,7.79,93.62,10.8,93.62,11v.08a3.08,3.08,0,0,0,.27.94.15.15,0,0,1-.11,0c-.27,0-.66-.06-1-.06h-1s-.06,0-.06,0a.62.62,0,0,1,.1-.16,2,2,0,0,0,.4-1.08c.13-1.76.25-3.54.38-5.31.06-.9.15-1.87.21-2.74,0,0,0-.1,0-.15,0-.29-.23-.36-.23-.53s0-.13.14-.13c.34,0,.67.06,1,.06h.8a.14.14,0,0,1,.17.17c0,.2-.27.16-.29.42a3.6,3.6,0,0,0,0,.56,6.16,6.16,0,0,0,1,1.07c.1.1.71.76.82.76a6.92,6.92,0,0,0,.91-.77,10.8,10.8,0,0,0,1-1.06c0-.37,0-.35,0-.54,0-.35-.26-.28-.27-.43s.07-.19.18-.19c.3,0,.36,0,.65,0s.68-.06,1-.07c.13,0,.15,0,.14.1s-.24.24-.22.72c0,.77.15,1.92.2,2.73l.36,5.26a2.46,2.46,0,0,0,.28,1.14s.09.07.09.13-.87.07-1,.07"/><path class="cls-5" d="M105,3.08v7.75a2.41,2.41,0,0,0,.28,1.07c0,.09-.07.1-.15.1s-.33,0-.82,0-.58,0-.85,0a.1.1,0,0,1-.11-.1.21.21,0,0,1,.08-.15,2.09,2.09,0,0,0,.25-1.09V3.14a3.19,3.19,0,0,0-.12-.94.63.63,0,0,1-.12-.28c0-.07.09-.09.15-.09.28,0,.48,0,.78,0l.78,0c.06,0,.16,0,.16.07A2.32,2.32,0,0,0,105,3.08"/><path class="cls-5" d="M113.87,2.66v8.21a1.72,1.72,0,0,0,.22.94.48.48,0,0,1,.08.16c0,.09-.14.09-.2.09-.28,0-.56-.06-.84-.06s-1,.08-1-.07.08-.13.12-.18a2.09,2.09,0,0,0,.34-1.34V9.34c0-.16,0-.35-.19-.35h-2.47c-.21,0-.3,0-.31.2a13.67,13.67,0,0,0-.05,1.43,2.36,2.36,0,0,0,.25,1.19c.05,0,.12.09.12.16s-.06.08-.1.08c-.21,0-.59-.06-.9-.06-.13,0-.93.09-.93-.06a.28.28,0,0,1,.06-.15,2.83,2.83,0,0,0,.21-.66c.07-.44,0-1,.07-1.47.18-3.46,1.59-7.76,5.73-7.76,0,0,.14,0,.14.09s-.35.31-.35.68m-1.28,1.26c0-.16-.06-.32-.25-.32-1.09,0-2.4,3.05-2.4,4,0,.2.18.17.32.17h2.23c.1,0,.1-.08.1-.17V3.92Z"/><path class="cls-5" d="M123.19,2.08a1.88,1.88,0,0,0-.27,1v7.73a1.69,1.69,0,0,0,.21.88.44.44,0,0,1,.07.19c0,.09-.07.1-.14.1-.24,0-.58,0-.83,0s-.53,0-.81,0h0c-.06,0-.12,0-.12-.1a.21.21,0,0,1,.08-.15,2.09,2.09,0,0,0,.25-1.09V8.44l-1.86-2.75c-.31-.47-.64-.94-1-1.38,0,0-.09-.14-.15-.14s-.07.31-.07.36v6.3a1.42,1.42,0,0,0,.22.86c0,.05.16.18.16.26s-.1.05-.13.05c-.28,0-.55,0-.83,0s-.68,0-1,0h0c-.06,0-.12,0-.12-.1a.21.21,0,0,1,.08-.15,2,2,0,0,0,.29-1.09V3.14a3.27,3.27,0,0,0-.09-.94.79.79,0,0,1-.13-.26c0-.08.1-.09.16-.09l.83,0,1.09,0c.06,0,.17,0,.17.08s-.19.23-.19.47a.66.66,0,0,0,.06.22,8.06,8.06,0,0,0,.63.9c.4.54.8,1.1,1.2,1.65.2.28.32.54.5.83,0,0,.07.15.12.15s0-.12,0-.13V3.25a2.47,2.47,0,0,0-.12-1c0-.07-.25-.19-.25-.26s.1-.09.16-.09c.3,0,.56,0,.86,0l.82,0c.06,0,.16,0,.16.08a.25.25,0,0,1,0,.14"/><path class="cls-5" d="M144,12c-2.84,0-4.11-2.58-4.11-5.09s1.15-5.05,4.11-5.05,4.18,2.48,4.18,5.05c0,2.75-1.09,5.09-4.18,5.09m0-8.86c-2,0-2.8,2.06-2.8,3.77s.75,3.78,2.8,3.78,2.84-2,2.84-3.78-.8-3.77-2.84-3.77"/><path class="cls-5" d="M154,3.2c-.32,0-.59,0-.91,0-.12,0-.15,0-.15.13v7.64a1.21,1.21,0,0,0,.19.81.29.29,0,0,1,.11.19c0,.07-.06.09-.12.09s-.18,0-.27,0-.45,0-.66,0l-.77,0c-.08,0-.25,0-.25-.13a.08.08,0,0,1,0-.06,2.16,2.16,0,0,0,.37-1.16V3.35c0-.27-.27-.19-.47-.19a5.15,5.15,0,0,0-1.36.12c-.13,0-.29.17-.41.17s-.12-.09-.12-.17,0-.15,0-.22V1.91h5.24a2.32,2.32,0,0,0,.78-.13.48.48,0,0,1,.2-.07s.08,0,.08.07v0A1.54,1.54,0,0,1,154,3.2"/><path class="cls-5" d="M170.77,11.71c0,.12,0,.32-.16.32h-.1a13.89,13.89,0,0,0-1.83,0h-1a16.87,16.87,0,0,0-1.77,0l-.19,0c-.07,0-.15,0-.15-.11a4.48,4.48,0,0,0,.27-1V3a2.79,2.79,0,0,0-.14-.72c0-.15-.14-.22-.14-.29s.16-.11.22-.11l.78,0h.82s.11,0,.11.06a.48.48,0,0,1-.09.14,1.84,1.84,0,0,0-.24,1v7c0,.37.16.68.58.68h.89a12.7,12.7,0,0,0,1.4-.08c.27-.05.66-.3.74-.3s.07.17.07.22c0,.38,0,.75,0,1.13"/><path class="cls-5" d="M62.11,9.66a5.06,5.06,0,0,1-2.41,2,9,9,0,0,1-3,.39A13.58,13.58,0,0,1,55.22,12a.18.18,0,0,1-.07-.32.61.61,0,0,0,.28-.63c0-.51.06-9.22.06-9.22A3.11,3.11,0,0,0,55.12.25c0-.11.12-.09.17-.09a4.12,4.12,0,0,1,.48,0c.39,0,.87,0,1.26,0,.91,0,1.78,0,2.69,0s2,.4,2,1.56a1.87,1.87,0,0,1-1,2v0a2.56,2.56,0,0,1,2.42,2.6,5.15,5.15,0,0,1-1,3.33m-3.28-5.2H57.15s-.12,0-.12.16V9.14c0,.28,0,.68.35.72a3.87,3.87,0,0,0,2.2-.32A2.94,2.94,0,0,0,61.21,6a2.17,2.17,0,0,0-2.38-1.53m.65-2.78H57.26c-.09,0-.23,0-.23.19v1c0,.12.14.16.18.16H59.5A.66.66,0,0,0,60,2.35c0-.3-.19-.67-.53-.67"/><path class="cls-5" d="M12.46,12.07c-.05.15-.42.12-.68.12A11.43,11.43,0,0,1,8.71,12c-4.38-1.22-4.6-6-3.92-8.4A5,5,0,0,1,10.07,0c1.1,0,1.6.39,1.92.21s.35,0,.35.31c0,.62,0,1.53,0,2.15,0,.07,0,.16-.11.16s-.13-.12-.21-.22a2.73,2.73,0,0,0-1.87-.8A3,3,0,0,0,6.76,4,5.3,5.3,0,0,0,7.4,8.72,3.37,3.37,0,0,0,10.31,10c.4-.07.42-.45.42-.69V6a2.77,2.77,0,0,0-.52-1.45.1.1,0,0,1,.11-.11,6.56,6.56,0,0,0,.79.06h.76a3.9,3.9,0,0,0,.67,0,.12.12,0,0,1,.13.15,2.61,2.61,0,0,0-.38,1.14v5.83c0,.29.23.29.17.5"/></g></g></svg>