<svg width="59" height="73" xmlns="http://www.w3.org/2000/svg"><path d="M24.257 34.47h-5.86a.444.444 0 00-.444.443v4.134c0 .246.2.444.444.444h25.475a.444.444 0 00.444-.444v-9.975a.444.444 0 00-.444-.444h-3.68a.444.444 0 00-.444.444v4.953a.444.444 0 01-.443.444h-8.951a.444.444 0 01-.444-.444V23.278c0-.245.198-.445.444-.445h5.865a.444.444 0 00.444-.443v-3.702a.444.444 0 00-.444-.444H18.398c-.245 0-.444.2-.444.445l.005 3.701c0 .245.199.443.444.443h5.854c.245 0 .443.2.443.445v10.747a.444.444 0 01-.443.444M58.544 0H.444A.444.444 0 000 .444V58.76c0 .16.086.307.225.386L23.642 72.44a.444.444 0 00.663-.386V59.462c0-.245.199-.444.444-.444h33.788a.444.444 0 00.444-.444V37.425a.444.444 0 00-.444-.445h-5.824a.444.444 0 00-.444.445V51.59a.444.444 0 01-.445.443H7.123a.444.444 0 01-.444-.443V6.58c0-.245.199-.444.444-.444h44.701c.246 0 .445.199.445.444v15.018c0 .246.198.445.444.445h5.83a.444.444 0 00.445-.444V.444A.444.444 0 0058.544 0" fill="#E21F26" fill-rule="evenodd"/></svg>