<?xml version="1.0" encoding="utf-8"?>
<!-- Generator: Adobe Illustrator 24.3.1, SVG Export Plug-In . SVG Version: 6.00 Build 0)  -->
<svg version="1.1" id="Layer_1" xmlns="http://www.w3.org/2000/svg" xmlns:xlink="http://www.w3.org/1999/xlink" x="0px" y="0px"
	 width="905.2855225px" height="186.8985901px" viewBox="0 0 905.2855225 186.8985901"
	 style="enable-background:new 0 0 905.2855225 186.8985901;" xml:space="preserve">
<style type="text/css">
	.st0{fill:#4C12A1;}
</style>
<g>
	<path class="st0" d="M888.1309814,145.4681549c0-1.0703888-0.6309814-1.6266174-1.6826782-2.1804962l-2.430603-1.3017578
		c-1.3204346-0.7081451-2.1057129-1.7224426-2.1057129-3.0989838c0-2.2015381,2.0473022-3.3864441,4.0571899-3.3864441
		c1.1288452,0,2.180481,0.1519165,3.1199951,0.6123199c0.2290649,0.1145172,0.2851562,0.2477417,0.2103271,0.4580688
		l-0.2874146,0.766571c-0.0771484,0.2290344-0.250061,0.2851257-0.4978027,0.1706085
		c-0.8226929-0.3622589-1.6827393-0.553894-2.4492798-0.553894c-1.0703735,0-2.31604,0.4978027-2.31604,1.7785187
		c0,0.9956055,0.5748901,1.4934082,1.4934082,1.9725037l2.0472412,1.0890808
		c1.5308228,0.8039551,2.6035156,1.7621613,2.6035156,3.5406952c0,2.5076904-2.0869751,3.7697144-4.4404297,3.7697144
		c-1.03302,0-2.1618042-0.1729431-3.213501-0.5351868c-0.250061-0.0771332-0.3061523-0.2687683-0.250061-0.4791107
		l0.250061-0.8600464c0.0747681-0.250061,0.2664185-0.2874603,0.4954834-0.1916351
		c0.8623657,0.3435516,1.8182373,0.553894,2.7180176,0.553894
		C886.7544556,147.5925751,888.1309814,146.9802551,888.1309814,145.4681549z M903.1210327,139.1159515l-3.6551514,9.5283051
		c-0.0771484,0.2103424-0.2103882,0.2687683-0.3833008,0.2687683h-0.6497192c-0.1916504,0-0.3248291-0.0373993-0.4206543-0.2687683
		l-3.9613647-9.5283051h-0.0187378l-0.2290039,9.4535217c0,0.2664185-0.0958252,0.3435516-0.3833008,0.3435516h-0.9371338
		c-0.2501221,0-0.364624-0.0771332-0.3458862-0.3645935l0.4417114-12.456665
		c0.0186768-0.3061676,0.1518555-0.3622589,0.3622437-0.3622589h0.8226318c0.3061523,0,0.4019775,0.0771332,0.4978027,0.2874756
		l4.5923462,10.5238953h0.0187378l4.2487793-10.5052032c0.0958252-0.2290344,0.1916504-0.3061676,0.4207153-0.3061676h0.8997803
		c0.2290039,0,0.3248291,0.0771332,0.3248291,0.3061676l0.5165405,12.4940643
		c0.0186768,0.250061-0.0584717,0.3832855-0.3435669,0.3832855h-1.0914307c-0.2874756,0-0.364563-0.1145172-0.364563-0.3832855
		l-0.3248901-9.4137878H903.1210327z"/>
	<g>
		<g>
			<path class="st0" d="M737.3238525,60.2144585c-37.4785767,0-55.8771973,32.7339897-60.3425293,81.8802338
				c-0.3331909,3.6673126,2.5298462,6.8400421,6.2122192,6.8400421h14.9872437
				c1.8179321-45.6621552,11.0407104-78.7268982,39.1430664-78.7268982c31.8709717,0,39.6212769,42.6001129,39.6212769,97.7088165
				h15.4000854c3.4831543,0,6.3076782-2.8538818,6.2401733-6.3363495
				C797.4268188,101.7883835,779.5631714,60.2144585,737.3238525,60.2144585z"/>
		</g>
		<path class="st0" d="M737.3239136,0c-15.0020142,0-25.9638672,11.1926661-25.9638672,26.4793148
			s10.961853,26.4793148,25.9638672,26.4793148s25.9638062-11.1926689,25.9638062-26.4793148S752.3259277,0,737.3239136,0z
			 M737.3239136,44.7280235c-7.1442261,0-12.0574341-6.002903-12.0574341-18.2487087s4.913208-18.2487106,12.0574341-18.2487106
			c7.144165,0,12.057373,6.0029039,12.057373,18.2487106S744.4680786,44.7280235,737.3239136,44.7280235z"/>
		<path class="st0" d="M824.8615112,17.2121162c-15.0020142,0-25.9638672,11.1926651-25.9638672,26.4793129
			s10.961853,26.4793167,25.9638672,26.4793167s25.9638062-11.1926689,25.9638062-26.4793167
			S839.8635254,17.2121162,824.8615112,17.2121162z M824.8615112,61.9401398
			c-7.1442261,0-12.0574341-6.0029068-12.0574341-18.2487106s4.913208-18.2487087,12.0574341-18.2487087
			c7.144165,0,12.057373,6.002903,12.057373,18.2487087S832.0056763,61.9401398,824.8615112,61.9401398z"/>
		<path class="st0" d="M761.3002319,186.8985901c-3.52948-53.2918243,20.041687-99.4786301,63.5612793-99.4786301
			c19.4805908,0,29.9778442,12.9190292,29.9778442,29.1548157s-11.0602417,32.3599472-43.477478,32.3599472l0.5068359,13.0769043
			c0.1340942,3.4605713,3.0653076,6.1729431,6.5238647,5.9941254c38.6251831-1.9971008,56.8588257-23.2949829,56.8588257-47.0668335
			c0-24.9217987-20.3753052-43.512352-50.3898926-43.512352c-51.6289673,0-87.2002563,42.0312271-85.5665283,103.3759232
			c0.09021,3.3876495,2.8537598,6.0960999,6.2426147,6.0960999H761.3002319z"/>
	</g>
	<g>
		<path class="st0" d="M23.6974449,50.551281c19.8432236,0,30.9786949,3.282093,37.4036674,10.136158
			c4.4263458,4.7105026,6.7091293,11.2765961,6.7091293,19.9843521c0,10.4222183-2.5688477,18.1325684-8.1375351,23.2721634
			c-6.5660973,5.9958725-16.4161949,8.7077484-33.1184464,8.7077484h-4.569376v36.261322H0V50.551281H23.6974449z
			 M21.9848824,99.5176086h6.1389065c12.2778187,0,17.5585384-3.7111893,17.5585384-17.8465042
			c0-13.2752228-4.5674706-17.8446007-17.5585384-17.8446007h-6.1389065V99.5176086z"/>
		<path class="st0" d="M96.3183899,85.6702576c4.8535309-5.5686874,10.7063751-8.1375275,16.9883194-8.1375275
			c3.1409683,0,6.1389084,0.8562775,8.8507843,2.4258118l-1.9986267,13.2771301
			c-2.8549118-1.1423492-5.709816-1.7125626-8.707756-1.7125626c-4.7124023,0-9.2798767,1.5695267-13.2771301,4.8535309
			c0.4271927,3.9972458,0.5702209,8.8507843,0.5702209,14.4194717v38.1169128H78.1858215V79.2452927h16.1339417
			C95.0330124,81.2439117,95.7462616,83.3855743,96.3183899,85.6702576z"/>
		<path class="st0" d="M162.2253571,77.5327301c22.7000427,0,35.834137,14.5605927,35.834137,36.5473862
			c0,21.9848709-13.1340942,36.5473862-35.834137,36.5473862c-22.6981354,0-35.8322296-14.5625153-35.8322296-36.5473862
			C126.3931274,92.0933228,139.5272217,77.5327301,162.2253571,77.5327301z M162.2253571,139.6331482
			c9.2798767,0,14.7055359-6.9951935,14.7055359-25.5530319c0-18.559761-5.4256592-25.5549469-14.7055359-25.5549469
			c-9.2779694,0-14.7036285,6.9951859-14.7036285,25.5549469
			C147.5217285,132.6379547,152.9473877,139.6331482,162.2253571,139.6331482z"/>
		<path class="st0" d="M318.9805298,118.0773621h-39.2592773c0,12.2778168,5.9958801,20.1292877,18.8439331,20.4153595
			c5.9958496,0.1411133,12.9910583-1.7144775,20.4153442-5.8547668l2.1416626,10.5652618
			c-7.2812805,5.1395874-16.5611572,7.4242859-25.5549622,7.4242859c-10.5652466,0-20.4153442-3.140976-26.840332-9.4229126
			c-6.4230652-6.138916-9.993103-15.2757568-9.993103-27.1244736c0-22.9861069,14.4194641-36.5473862,35.1208801-36.5473862
			c18.1306458,0,30.9786987,10.9924393,30.9786987,32.6912537
			C324.833374,117.2191772,323.8340454,118.0773621,318.9805298,118.0773621z M306.4166565,107.3690796v-2.4258118
			c0-11.7075958-5.2826538-17.133255-12.4189453-17.133255c-8.4236145,0-14.4194946,5.139595-14.4194946,19.5590668H306.4166565z"/>
		<path class="st0" d="M391.500061,94.9482346c-5.4256592-3.568161-11.850647-5.2807236-17.7034912-5.2807236
			c-10.8493958,0-17.8464966,7.4223785-17.8464966,24.5537262c0,16.9902191,5.711731,24.2714844,18.5597534,24.2714844
			c5.1395874,0,11.4215393-1.5714417,17.8464966-4.9984741l1.9986267,10.5652466
			c-7.4242859,4.5693817-15.9889832,6.5680084-24.2695618,6.5680084c-22.8430786,0-35.263916-14.7055359-35.263916-36.263237
			c0-23.1272202,14.4194641-36.8315353,35.4050598-36.8315353c8.5666199,0,16.847168,2.2827759,23.1291199,6.7091217
			L391.500061,94.9482346z"/>
		<path class="st0" d="M251.5269165,136.8177338c-3.0808868,1.1105804-6.1874695,1.6749878-9.1712799,1.6749878
			c-5.8829956,0-7.883255-3.3442993-7.883255-11.3357697V90.094696h17.831955V79.2452927h-17.831955V57.2604065
			l-20.5564728,2.5707512v19.414135h-11.1481323V90.094696h11.1481323v36.642868
			c0,14.0587463,5.9528046,23.8899384,22.046814,23.8899384c5.9283752,0,11.6715546-1.2128448,16.9157715-3.1424255
			L251.5269165,136.8177338z"/>
		<path class="st0" d="M449.4416199,136.8177338c-3.0808716,1.1105804-6.1874695,1.6749878-9.1712646,1.6749878
			c-5.8830261,0-7.8832703-3.3442993-7.8832703-11.3357697V90.094696h17.8319397V79.2452927H432.387085V57.2604065
			l-20.556488,2.5707512v19.414135h-11.1481018V90.094696h11.1481018v36.642868
			c0,14.0587463,5.9528198,23.8899384,22.0468445,23.8899384c5.9283752,0,11.6715393-1.2128448,16.9157715-3.1424255
			L449.4416199,136.8177338z"/>
		<path class="st0" d="M472.0432434,49.8361244c6.4230652,0,10.8493958,4.2833138,10.8493958,10.2791901
			s-4.4263306,10.2791939-10.8493958,10.2791939s-10.8494263-4.2833176-10.8494263-10.2791939
			S465.6201782,49.8361244,472.0432434,49.8361244z M482.3205261,79.2452927v69.6677322h-20.556488V97.5895462V79.2452927
			H482.3205261z"/>
		<path class="st0" d="M512.9273071,79.2452927l16.8453369,47.2537613l16.5610962-47.2537613h12.9910889l-26.4112549,69.6677322
			h-13.9903564l-28.1257019-69.6677322H512.9273071z"/>
		<path class="st0" d="M621.9191895,118.0773621h-39.2592773c0,12.2778168,5.9958496,20.1292877,18.8439331,20.4153595
			c5.9958496,0.1411133,12.9910278-1.7144775,20.4153442-5.8547668l2.1416626,10.5652618
			c-7.28125,5.1395874-16.5611572,7.4242859-25.5549927,7.4242859c-10.5632935,0-20.4153442-3.140976-26.8383789-9.4229126
			c-6.4249878-6.138916-9.9950562-15.2757568-9.9950562-27.1244736c0-22.9861069,14.4194946-36.5473862,35.1209106-36.5473862
			c18.1306763,0,30.9786987,10.9924393,30.9786987,32.6912537
			C627.7720337,117.2191772,626.7727051,118.0773621,621.9191895,118.0773621z M609.3571777,107.3690796v-2.4258118
			c0-11.7075958-5.2825928-17.133255-12.4208374-17.133255c-8.423584,0-14.4194336,5.139595-14.4194336,19.5590668H609.3571777z"/>
	</g>
</g>
</svg>
