<svg xmlns="http://www.w3.org/2000/svg" width="235" height="94" viewBox="0 0 235 94"><g><g><g><g><g><path fill="#044484" d="M10.574 84.32c.88 0 1.545.21 1.996.633.45.417.676 1.039.676 1.855 0 .868-.185 1.491-.557 1.864-.37.378-.988.566-1.853.566-.515 0-.862-.1-1.042-.294-.178-.196-.27-.676-.27-1.44V84.32zm-1.05-3.842c0-.311.06-.518.18-.62.12-.101.388-.152.803-.152.813 0 1.388.158 1.73.474.34.317.511.848.511 1.598 0 .77-.176 1.324-.526 1.66-.35.335-.928.504-1.733.504h-.964zm2 9.08c1.223 0 2.167-.218 2.838-.662.667-.442 1.002-1.063 1.002-1.87 0-.758-.242-1.373-.724-1.833-.484-.464-1.197-.77-2.145-.917v-.183c.782-.215 1.373-.507 1.772-.885.399-.374.6-.82.6-1.34 0-.77-.349-1.38-1.046-1.82-.697-.445-1.661-.664-2.893-.664H6.319v.322c.54 0 .886.06 1.04.186.155.127.231.391.231.798v7.572c0 .406-.076.668-.23.79-.155.124-.502.186-1.04.186v.32z"/></g></g><g><g><path fill="#044484" d="M30.323 81.669l2.002 4.41H28.4zm-1.73 7.89v-.321h-.06c-.332 0-.594-.059-.785-.179-.19-.117-.286-.275-.286-.477 0-.125.018-.264.056-.414.04-.15.097-.31.177-.484l.486-1.094h4.364l.526 1.17c.12.258.207.467.263.628.055.165.082.293.082.386 0 .135-.087.232-.262.301-.175.069-.478.122-.907.163v.32h4.75v-.32h-.134c-.642 0-1.25-.63-1.823-1.887l-.033-.07-3.693-8.03h-.246c-.163.231-.354.46-.571.688-.22.228-.463.455-.732.679a.82.82 0 0 1 .193.213.473.473 0 0 1 .066.237c0 .09-.05.247-.146.465a1.714 1.714 0 0 1-.035.083L27.28 87.48c-.289.659-.562 1.095-.818 1.31-.258.216-.602.363-1.032.448v.32z"/></g></g><g><g><path fill="#044484" d="M48.34 80.386v6.837c0 .736.108 1.253.325 1.548.217.291.594.447 1.13.467v.32h-3.298v-.32c.5-.073.849-.255 1.048-.554.196-.291.296-.775.296-1.46V80.8c0-.477-.07-.777-.214-.897-.143-.12-.47-.18-.976-.18h-.154v-.34h3.758l6.3 7.265v-4.924c0-.738-.11-1.251-.33-1.545-.218-.29-.594-.448-1.126-.47v-.326h3.297v.326c-.498.073-.847.255-1.047.55-.199.294-.298.78-.298 1.465v8.023h-.571z"/></g></g><g><g><path fill="#044484" d="M71.95 84.953l2.941-3.91c.014-.016.039-.05.073-.095.221-.291.334-.53.334-.712 0-.147-.073-.27-.22-.367-.146-.097-.345-.15-.598-.163v-.322h2.997l-.007.322c-.798.051-1.546.553-2.245 1.503-.077.103-.134.182-.173.23l-1.363 1.803 3.01 4.524c.376.575.709.95.994 1.13.286.179.643.292 1.073.342v.32h-3.081l-3.212-4.688-.522.67v2.72c0 .4.077.663.235.787.154.125.492.191 1.01.191h.155v.32h-4.753v-.32h.156c.522 0 .86-.066 1.014-.19.153-.125.23-.389.23-.789v-7.57c0-.406-.077-.674-.23-.797-.154-.126-.502-.186-1.04-.186v-.322h4.623v.322h-.155c-.518 0-.856.06-1.01.186-.158.123-.235.391-.235.798z"/></g></g><g><g><path fill="#044484" d="M106.357 83.131zm0 0c-.474-.453-.818-.859-1.032-1.215-.212-.35-.318-.691-.318-1.01 0-.378.115-.69.35-.938.233-.253.519-.378.862-.378.335 0 .602.148.796.44.196.289.294.69.294 1.195 0 .428-.077.796-.232 1.106a2.134 2.134 0 0 1-.72.8zm.228 3c.465.605.87 1.221 1.217 1.848-.338.32-.672.555-1 .705a2.303 2.303 0 0 1-1.01.232c-.631 0-1.133-.221-1.502-.666-.37-.446-.554-1.051-.554-1.82 0-.509.1-.935.3-1.28.2-.345.508-.626.93-.844.612.612 1.15 1.221 1.619 1.826zm1.443 2.257c.297.458.626.802.985 1.032.36.232.75.347 1.172.347.438 0 .827-.125 1.169-.37.337-.244.63-.612.874-1.107l-.247-.187a1.565 1.565 0 0 1-.44.299c-.15.065-.313.097-.485.097-.32 0-.615-.121-.884-.37-.272-.246-.553-.65-.845-1.215.319-.388.628-.93.93-1.62l.173-.376c.169-.359.361-.627.572-.804.215-.177.486-.306.821-.384v-.318h-2.577v.318c.262.029.466.096.612.207a.49.49 0 0 1 .22.41c0 .235-.089.55-.266.94-.177.39-.421.799-.732 1.227-.42-.72-.83-1.33-1.224-1.83a8.415 8.415 0 0 0-1.2-1.259c.48-.277.84-.6 1.082-.97.242-.371.363-.786.363-1.246 0-.588-.186-1.06-.56-1.421-.374-.359-.869-.537-1.486-.537-.738 0-1.346.234-1.824.704s-.716 1.064-.716 1.785c0 .397.091.782.274 1.152.182.374.47.756.861 1.146-.89.348-1.57.802-2.037 1.364a2.926 2.926 0 0 0-.7 1.925c0 .758.248 1.354.745 1.787.5.434 1.183.653 2.055.653.624 0 1.206-.113 1.747-.341a5.34 5.34 0 0 0 1.568-1.038z"/></g></g><g><g><path fill="#044484" d="M144.215 79.384h.096c.144 0 .257-.015.337-.042a.588.588 0 0 0 .22-.148h.502l.558 2.948-.232.096c-.452-.841-.947-1.473-1.483-1.896-.535-.428-1.111-.636-1.727-.636-.302 0-.501.045-.596.136-.096.091-.142.353-.142.783v7.615c0 .404.076.672.23.801.154.128.486.197.997.197h.154v.32h-4.752v-.32h.155c.518 0 .853-.069 1.01-.197.156-.129.235-.397.235-.801v-7.615c0-.42-.048-.682-.143-.777-.097-.096-.296-.142-.604-.142-.617 0-1.19.208-1.724.63-.532.42-1.027 1.056-1.484 1.902l-.245-.096.57-2.948h.491c.071.069.145.12.225.148.08.027.195.042.345.042h.1z"/></g></g><g><g><path fill="#044484" d="M159.319 80.736c0-.43.061-.706.181-.828.122-.122.411-.184.867-.184.786 0 1.403.19 1.853.577.449.383.671.914.671 1.583 0 .74-.226 1.3-.679 1.686-.453.385-1.12.58-2.003.58h-.89v-3.414zm1.4 8.823v-.321h-.154c-.518 0-.855-.066-1.012-.19-.157-.122-.234-.389-.234-.786v-3.678h.549c.441 0 .802.111 1.079.339.28.225.645.79 1.096 1.702l1.424 2.934h3.202v-.35c-.024 0-.055.002-.094.006a.849.849 0 0 1-.087.008c-.624 0-1.236-.569-1.838-1.706l-.06-.107-.77-1.413c-.008-.017-.025-.053-.053-.097-.381-.7-.792-1.19-1.23-1.473.801-.141 1.398-.4 1.791-.775.394-.378.591-.873.591-1.49 0-.855-.384-1.532-1.149-2.029-.765-.499-1.81-.749-3.131-.749h-4.544v.326c.54 0 .885.062 1.04.188.155.126.23.39.23.798v7.566c0 .397-.075.664-.23.785-.155.125-.491.191-1.013.191h-.156v.32z"/></g></g><g><g><path fill="#044484" d="M178.02 80.69c0-.407-.079-.675-.234-.798-.157-.126-.502-.186-1.037-.186v-.322h4.624v.322h-.155c-.51 0-.843.06-.996.183-.156.123-.23.386-.23.8v4.779c0 1.285.256 2.23.77 2.831.517.601 1.326.9 2.43.9.51 0 .988-.061 1.43-.18.442-.123.81-.289 1.108-.511.421-.299.716-.645.88-1.038.17-.394.252-1.005.252-1.832V81.72c0-.743-.11-1.263-.322-1.553-.213-.289-.585-.443-1.116-.461v-.322h3.28v.322c-.5.072-.85.254-1.047.547-.198.293-.298.783-.298 1.467v3.93c0 1.446-.373 2.494-1.121 3.135-.748.64-1.967.963-3.653.963-.85 0-1.576-.102-2.172-.3-.597-.203-1.09-.508-1.481-.922a3.104 3.104 0 0 1-.702-1.224c-.141-.458-.21-1.139-.21-2.034z"/></g></g><g><g><path fill="#044484" d="M199.52 86.078h.27c.435 1.164.922 2.002 1.461 2.519.54.515 1.197.773 1.974.773.61 0 1.1-.162 1.464-.489.362-.319.544-.757.544-1.304 0-.497-.182-.915-.547-1.255-.367-.34-1.076-.71-2.127-1.111-1.127-.428-1.918-.881-2.372-1.363-.455-.481-.682-1.086-.682-1.815 0-.854.277-1.53.828-2.03.552-.503 1.299-.752 2.238-.752a6.41 6.41 0 0 1 2.123.379c.173.062.28.09.32.09a.724.724 0 0 0 .329-.11c.13-.071.284-.182.462-.332h.238v3.434h-.27c-.35-1.018-.802-1.79-1.354-2.314-.549-.524-1.177-.788-1.887-.788-.479 0-.877.136-1.192.405a1.3 1.3 0 0 0-.472 1.025c0 .422.153.784.464 1.072.306.29.949.625 1.926 1.004.7.268 1.21.479 1.53.64.323.16.58.318.77.48.421.348.73.72.928 1.116.195.392.294.842.294 1.342 0 .952-.333 1.699-1 2.241-.667.54-1.59.813-2.769.813-.674 0-1.378-.13-2.109-.394-.186-.063-.3-.095-.346-.095a.731.731 0 0 0-.333.107 3.07 3.07 0 0 0-.457.342h-.247z"/></g></g><g><g><path fill="#044484" d="M225.888 79.384h.093c.147 0 .26-.015.339-.042a.57.57 0 0 0 .22-.148h.504l.558 2.948-.233.096c-.453-.841-.948-1.473-1.482-1.896-.537-.428-1.114-.636-1.73-.636-.3 0-.499.045-.595.136-.095.091-.143.353-.143.783v7.615c0 .404.078.672.23.801.154.128.487.197 1 .197h.152v.32h-4.752v-.32h.152c.518 0 .858-.069 1.012-.197.157-.129.236-.397.236-.801v-7.615c0-.42-.048-.682-.144-.777-.096-.096-.296-.142-.602-.142-.618 0-1.193.208-1.724.63-.532.42-1.028 1.056-1.485 1.902l-.245-.096.57-2.948h.49c.071.069.147.12.227.148.08.027.193.042.345.042h.1z"/></g></g></g><g><g><path fill="#044484" d="M.926 75.95v-1.21h233.878v1.21z"/></g></g><g><g><path fill="#044484" d="M.926 93.852V92.64h233.878v1.21z"/></g></g><g><g><path fill="#044484" d="M80.027 71.037c-.335 0-8.482.034-8.482.034-11.248 0-28.763-3.877-34.552-11.736 0 0-9.21-9.967-1.716-23.19 0 0 1.501-3.683 10.069-11.48 0 0 8.57-7.59-.214-14.738 0 0-5.764-5.37-9.25-3.303 0 0-2.688 1.013.252 5.04 0 0 4.284 6.07-2.142 16.25 0 0-3.368 5.284-7.84 21.23 0 0-3.005 11.346-3.055 21.804L1.85 70.925c2.195-8.558 7.571-25.812 18.646-41.927 0 0 6.644-8.238 8.571-19.292 0 0 .214-13.428 19.495-8.447 0 0 21.674 5.172 19.914 22.588 0 0 .466 9.366-12.01 15.302 0 0-11.486 5.312-5.778 17.718 0 0 2.738 8.993 21.03 12.656 2.492.493 5.255.782 8.308.782z"/></g></g><g><g><g><path fill="#044484" d="M93.618 23.68v1.523h-.708c-2.39 0-3.946.293-4.665.875-.721.579-1.082 1.815-1.082 3.702V65c0 1.864.36 3.089 1.082 3.672.719.584 2.276.875 4.665.875h.708v1.523H71.545v-1.523h.675c2.423 0 3.995-.29 4.71-.875.715-.583 1.073-1.808 1.073-3.672V29.78c0-1.907-.353-3.149-1.058-3.72-.704-.573-2.302-.857-4.787-.857v-1.524z"/></g></g><g><g><path fill="#044484" d="M134.832 32.644c.455-.973.76-1.764.914-2.37a7.402 7.402 0 0 0 .234-1.858c0-.936-.46-1.687-1.382-2.259-.921-.574-2.167-.891-3.74-.954l-.03-1.524h14.68v1.524c-3.539.657-6.394 3.34-8.565 8.046v.031l-17.66 38.685h-1.677L100.28 34.202v-.03c-2.753-5.979-5.565-8.97-8.439-8.97h-.776V23.68h22.164v1.524c-1.987.19-3.394.445-4.222.763-.827.318-1.24.763-1.24 1.336 0 .423.124 1.023.372 1.796.248.777.63 1.733 1.147 2.879l12.79 28.342z"/></g></g><g><g><path fill="#044484" d="M142.486 71.071V69.55c2.52 0 4.137-.283 4.856-.858.716-.57 1.077-1.795 1.077-3.678v-35.24c0-1.882-.36-3.116-1.077-3.699-.719-.583-2.336-.871-4.856-.871v-1.524h37.79l5.135 12.633h-1.407c-1.619-1.907-3.062-3.508-4.336-4.809-1.274-1.304-2.378-2.291-3.308-2.969-.933-.697-1.798-1.263-2.596-1.698a14.709 14.709 0 0 0-2.346-1.032c-.62-.21-1.43-.367-2.424-.46-.995-.094-2.184-.141-3.574-.141h-5.511c-1.012 0-1.668.093-1.968.284-.3.19-.449.655-.449 1.4V45.806h4.306c3.86 0 6.823-.751 8.886-2.249 2.064-1.5 3.396-3.857 3.996-7.07h1.308V58.26h-1.308c-.248-3.645-1.43-6.346-3.546-8.11-2.117-1.76-5.228-2.642-9.336-2.642h-4.306v17.346c0 2.351.212 3.718.634 4.11.422.392 1.647.585 3.672.585h4.767c4.146 0 7.624-.947 10.432-2.836 2.809-1.887 5.469-5.094 7.976-9.615l1.397.13-3.713 13.844z"/></g></g><g><g><path fill="#044484" d="M200.214 29.914c0-1.996.282-3.28.848-3.854.568-.573 1.913-.857 4.037-.857 3.668 0 6.548.894 8.641 2.69 2.092 1.795 3.138 4.252 3.138 7.371 0 3.443-1.06 6.056-3.186 7.852-2.123 1.794-5.247 2.69-9.37 2.69h-4.108V29.915zm6.456 41.157v-1.523h-.71c-2.39 0-3.946-.29-4.664-.875-.721-.583-1.082-1.808-1.082-3.672V47.868h2.533c2.061 0 3.74.524 5.04 1.57 1.297 1.052 3 3.694 5.101 7.935l6.664 13.698h14.862v-1.65c-.103 0-.25.011-.434.03a3.57 3.57 0 0 1-.402.031c-2.893 0-5.732-2.647-8.522-7.946l-.279-.508-3.576-6.58a15.924 15.924 0 0 0-.247-.445c-1.781-3.268-3.696-5.561-5.745-6.874 3.728-.66 6.509-1.865 8.343-3.615 1.832-1.75 2.75-4.054 2.75-6.92 0-3.964-1.79-7.107-5.367-9.433-3.578-2.32-8.455-3.482-14.635-3.482h-21.093v1.461c2.52 0 4.138.293 4.857.876.717.584 1.076 1.82 1.076 3.708V65c0 1.864-.359 3.089-1.076 3.672-.719.584-2.296.875-4.73.875h-.65v1.523z"/></g></g></g></g></g></svg>