<?xml version="1.0" encoding="UTF-8"?>
<!DOCTYPE svg PUBLIC "-//W3C//DTD SVG 1.1//EN" "http://www.w3.org/Graphics/SVG/1.1/DTD/svg11.dtd">
<svg xmlns="http://www.w3.org/2000/svg" viewBox="0 0 159 59">
	<title>Spire Energy Logo</title>
	<g fill="#E87322">
		<path d="M85.5 22.3c3.6 0 5.2 2.2 5.3 4.6H80.2c.1-2.2 2.1-4.6 5.3-4.6zm5.6 10.9c-.8 1.9-2.8 3.3-5.4 3.3-3.1 0-5.5-2.3-5.7-5.3h17c0-.1.1-1.1.1-2 0-7.5-4.5-12-11.7-12-6.1 0-11.7 4.8-11.7 12.2 0 7.9 5.6 12.4 12.1 12.4 5.7 0 9.9-4.2 11-8.6h-5.7zm-85.7.3C5.6 35.3 7 37 9.7 37c2.1 0 3.1-1.1 3.1-2.3 0-1-.7-1.9-2.5-2.3l-3.1-.7C2.7 30.7.6 28 .6 24.8c0-4.2 3.7-7.6 8.8-7.6 6.6 0 9.5 4.4 9.2 7.9h-5.3c-.2-1.4-1.2-3.2-3.9-3.2-1.6 0-3 1-3 2.3 0 1.2.9 1.9 2.2 2.1l3.3.7c4.6 1 7 3.8 7 7.2 0 3.8-3 7.6-9.1 7.6-7.1 0-10.1-4.7-9.8-8.3h5.4zm67.8-9.8c-.7-.1-1.4-.2-1.9-.2-3.3 0-6.1 1.6-6.1 6.7v11h-6.4V17.7H65v3.4c1.4-3.1 4.7-3.7 6.7-3.7.5 0 1 0 1.5.1v6.2zM48.4 41.2h6.4V17.7h-6.4v23.5zM33.5 22.9c-3.3 0-5.9 2.4-5.9 6.6 0 4.1 2.6 6.6 5.9 6.6 3.3 0 5.9-2.4 5.9-6.6 0-4.2-2.6-6.6-5.9-6.6zM21.3 50.3V17.7h6.2v2.8c1.1-1.8 3.7-3.3 7.3-3.3 6.9 0 10.8 5.3 10.8 12.2 0 7.1-4.4 12.4-11.1 12.4-3.2 0-5.6-1.2-6.8-2.8v11.3h-6.4zm26.4-39.1c0 2.1 1.8 3.9 3.9 3.9 2.2 0 3.9-1.8 3.9-3.9 0-2.1-1.7-3.9-3.9-3.9-2.1 0-3.9 1.8-3.9 3.9zm81.9 40.3c7.4 0 13.4-6 13.4-13.4s-6-13.4-13.4-13.4v-7.5c11.6 0 21 9.3 21 20.9 0 11.5-9.4 20.9-21 20.9v-7.5zm0-51.5c-11.7 0-21.1 9.4-21.1 20.9 0 11.6 9.4 20.9 21.1 20.9v-7.5c-7.5 0-13.5-6-13.5-13.4s6-13.4 13.5-13.4V0z"></path>
	</g>
</svg>
