<?xml version="1.0" encoding="UTF-8"?>
<svg id="Layer_1" data-name="Layer 1" xmlns="http://www.w3.org/2000/svg" viewBox="0 0 76.96 76.82">
  <defs>
    <style>
      .cls-1 {
        fill: #0b0b0c;
      }
    </style>
  </defs>
  <path class="cls-1" d="M68.26,34.26h0s-.06-.03-.1-.05l-11.03-3.87-.26-.09,13.19-6.22,2.75-1.3-.42,1.14-1.2,3.27c-.25.67-.49,1.34-.74,2-.23.61-.49,1.22-.74,1.83-.46,1.1-.91,2.21-1.45,3.28ZM54.1,31.56l1.21-.57,10.86,3.8,1.41.49c-.06.08-.12.16-.18.24-.15.21-.29.42-.45.62-.11.13-.23.25-.37.35-.27.25-.55.48-.83.71-1.37,1.18-3,2.03-4.75,2.49-.86.18-1.75.2-2.62.06-.77-.11-1.54-.27-2.3-.45-1.78-.42-3.54-.93-5.29-1.48s-3.47-1.14-5.19-1.75l-.6-.22,9.1-4.3ZM50.95,30.04c-.02.57-.05,1.14-.07,1.71l-3.61,1.71-2.36,1.11c.31-.9.62-1.81.95-2.71.52-1.42,1.06-2.83,1.63-4.23.54-1.31,1.11-2.62,1.74-3.89.5-1.12,1.17-2.16,1.99-3.08.04-.04.08-.07.13-.11-.13,3.17-.26,6.33-.4,9.49h0ZM59.98,18.06c.3.03.6.09.89.17.95.23,1.89.51,2.83.8.7.21,1.4.43,2.1.65l.11.04,2.42.85,3.6,1.26-8.72,4.11-4.43,2.09.76-9.41c.01-.19.03-.38.05-.58.13,0,.26,0,.39.01ZM56.89,18.09c.43-.06.86-.08,1.29-.11h.21c-.25,3.09-.5,6.19-.75,9.28-.04.45-.07.91-.11,1.36l-5.41,2.55.48-11.6c.5-.31,1.02-.57,1.57-.79.88-.34,1.79-.57,2.73-.7h0ZM50.36,15.98c-1.57,1.11-2.92,2.5-3.98,4.12-.32.47-.62.96-.9,1.46-.41.78-.78,1.59-1.09,2.41-.5,1.23-.96,2.46-1.41,3.7-.94,2.57-1.83,5.15-2.71,7.74-.31.91-.61,1.82-.93,2.72,0,.02,0,.03.02.04,1.27.47,2.53.93,3.8,1.39,2.51.91,5.03,1.8,7.57,2.64,1.13.37,2.26.74,3.4,1.06.9.28,1.82.47,2.75.59,1.76.19,3.54.02,5.23-.51,1.46-.47,2.84-1.18,4.08-2.1,1.09-.81,2.09-1.73,2.98-2.76.37-.42.72-.86,1.06-1.31.15-.2.28-.4.43-.6.06-.06.12-.12.19-.17.11-.11.2-.24.27-.38.21-.35.36-.74.54-1.1,0,0,0-.02,0-.03.52-1.2,1-2.41,1.48-3.62.52-1.31,1.04-2.63,1.55-3.95.19-.5.41-1,.58-1.51.29-.92.58-1.84.88-2.76.18-.56.35-1.11.53-1.67.1-.31.23-.63.3-.95,0-.01.01-.03.01-.05.01-.03-.04-.06-.05-.03s-.03.02-.04.03c.02-.02.04-.04.07-.06,0-.01,0-.03,0-.04,0,0,0,0,0,0l-2.42-.97-2.93-1.17c-.41-.16-.83-.29-1.25-.43l-3.33-1.15-3.68-1.27-2.18-.75s-.07-.03-.11-.03c-.01,0-.03.03-.05.03-.03,0-.05-.01-.08-.02l-.21-.06c-.14-.04-.28-.07-.41-.1-.58-.14-1.17-.24-1.76-.31-1.32-.16-2.66-.11-3.97.15-1.49.31-2.91.91-4.17,1.77Z"/>
  <path class="cls-1" d="M50.65,63.23c-1.07-2.29-2.14-4.57-3.21-6.86l9.64,3.56,1.58.58c.05.01.1.02.15.02-.08.36-.18.71-.27,1.06-.39,1.41-.82,2.82-1.29,4.21-.36,1.06-.75,2.1-1.12,3.15-.4,1.13-.8,2.25-1.2,3.38-1.42-3.04-2.85-6.08-4.27-9.11ZM41.72,67.51l5.4-7.67.37-.53c1.68,3.58,3.36,7.17,5.03,10.75l1.12,2.4-.85-.32-3.54-1.31c-.54-.2-1.09-.39-1.63-.6-.96-.39-1.92-.79-2.88-1.19-.61-.26-1.22-.53-1.82-.81-.22-.1-.44-.21-.65-.33-.19-.11-.36-.24-.53-.37l-.02-.02ZM43.79,51.42l-6.81,8.92c-.05-.41-.06-.83-.03-1.25.08-.81.21-1.61.41-2.4.44-1.91,1.01-3.78,1.63-5.64.62-1.89,1.3-3.76,2-5.62.93,2,1.87,3.99,2.8,5.99ZM45.05,54.12l1.84,3.93-5.85,8.32-.29.41c-.05-.04-.11-.08-.17-.13s-.1-.09-.15-.13c-.31-.28-.6-.58-.88-.89-1-1.09-1.76-2.37-2.24-3.76,2.14-2.81,4.28-5.61,6.43-8.42l.62-.82.69,1.47ZM58.75,56.29c.11.46.19.93.26,1.4.03.29.02.59-.01.88-.02.26-.03.51-.04.77l-10.82-3.99-1.42-.52-3.52-7.53c-.45-.95-.89-1.9-1.34-2.85,1.71.61,3.41,1.25,5.1,1.92,1.92.76,3.83,1.57,5.69,2.49.86.42,1.7.88,2.51,1.39,2.05,1.33,3.08,3.75,3.6,6.04h0ZM47.71,42.27c-1.29-.48-2.58-.96-3.87-1.42-1.04-.38-2.09-.75-3.13-1.12-.53-.19-1.07-.38-1.61-.56l-.07-.03s-.03,0-.04.02c-.09.24-.18.48-.27.72-.63,1.62-1.25,3.24-1.87,4.87-.82,2.18-1.63,4.36-2.39,6.56-.63,1.63-1.12,3.32-1.45,5.04-.49,2.64-.28,5.36.61,7.89.74,1.87,1.94,3.52,3.51,4.79.69.56,1.42,1.05,2.2,1.47.35.19.7.36,1.06.53.04.01.09.03.12.06.02.02.02.04.04.06l.02.02s.07.03.1.04l3.62,1.36,5.03,1.89c.7.26,1.39.53,2.1.76l4.68,1.5.38.12s.03,0,.04-.02c0,0,0,0,0,0,0-.13-.04-.27-.09-.39.08.09.13.21.14.33,0,.04.05.04.06.01l.9-2.23c.4-.98.8-1.96,1.19-2.94.19-.46.33-.93.49-1.4.44-1.31.88-2.62,1.31-3.93.42-1.29.85-2.57,1.24-3.87.03-.1.06-.2.09-.29.01.01.03.01.04,0,0,0,0-.01,0-.02.03-.14.06-.29.08-.43.04-.25.12-.49.15-.74s.01-.49.03-.74c.04-.49.07-.98.08-1.47.02-1.23-.07-2.46-.28-3.67-.25-1.42-.69-2.8-1.33-4.09-.72-1.44-1.7-2.73-2.89-3.8-.95-.85-2.02-1.56-3.18-2.1-.99-.46-2-.87-3.01-1.28-1.27-.51-2.55-1-3.84-1.48Z"/>
  <path class="cls-1" d="M35.3,9.3l-5.4,7.67-.37.53-5.02-10.74-1.12-2.4.07.03,2.52.93,2.44.9c.32.12.65.23.97.36.59.23,1.18.48,1.77.72.93.39,1.85.78,2.76,1.2.33.15.64.31.95.49.14.09.27.19.39.29l.03.03ZM33.28,23.35l-.62.82c-.23-.49-.46-.98-.69-1.47-.61-1.31-1.23-2.63-1.84-3.94,1.95-2.77,3.9-5.55,5.85-8.32l.3-.42c.37.29.71.61,1.02.97.69.74,1.29,1.57,1.78,2.46.26.48.47.98.64,1.5l-6.43,8.41ZM33.23,25.4l6.81-8.92c.02.22.04.44.05.66,0,.34-.02.69-.06,1.03-.29,1.81-.72,3.6-1.28,5.35-.61,2.03-1.3,4.03-2.03,6.02-.22.62-.46,1.23-.69,1.84-.93-1.99-1.87-3.99-2.8-5.98ZM28.89,21.47l1.42.52c1.18,2.51,2.35,5.02,3.53,7.53.44.93.87,1.86,1.31,2.79-1.54-.56-3.07-1.12-4.59-1.72-1.79-.71-3.56-1.44-5.3-2.27-.77-.37-1.53-.75-2.28-1.17-.69-.36-1.33-.8-1.91-1.31-1.16-1.19-1.99-2.65-2.41-4.25-.2-.68-.36-1.38-.48-2.08-.05-.28-.1-.58-.12-.86,0-.26.01-.51.04-.76,0-.13.01-.26.02-.39l10.78,3.98ZM26.37,13.59l3.21,6.86c-3.21-1.18-6.43-2.37-9.64-3.56l-1.58-.58s-.07-.01-.11-.02c.03-.12.05-.24.08-.36.15-.6.33-1.19.5-1.79.3-1.01.62-2.02.94-3.02.14-.44.31-.88.46-1.31l1.17-3.27c.24-.67.48-1.34.72-2.02,1.42,3.02,2.83,6.05,4.24,9.06ZM20.49.03c0,.05,0,.11.02.16-.02-.04-.03-.08-.02-.12,0-.03-.05-.04-.06-.01l-.88,2.16-1.2,2.95c-.18.43-.31.88-.46,1.32-.43,1.28-.86,2.57-1.28,3.85-.43,1.31-.86,2.62-1.26,3.95-.03.11-.06.22-.1.32-.01,0-.02.01-.02.02-.1.43-.24.84-.3,1.28-.02.13-.02.27,0,.4.02.09.03.17.03.26-.05.5-.07,1-.08,1.5-.03,1.24.06,2.47.27,3.69.24,1.43.68,2.82,1.32,4.12.71,1.44,1.69,2.74,2.89,3.82.94.85,2.01,1.55,3.15,2.09.99.46,2,.88,3.01,1.28,1.27.51,2.55,1,3.83,1.47s2.57.95,3.85,1.41c1.04.38,2.09.75,3.13,1.12.53.19,1.07.38,1.61.56l.07.03s.03,0,.04-.02c.55-1.5,1.15-2.99,1.72-4.48.84-2.21,1.67-4.43,2.45-6.66.36-1.02.71-2.04,1.04-3.07.23-.73.46-1.46.63-2.2.29-1.36.42-2.75.38-4.14-.02-1.29-.22-2.57-.6-3.81-.63-1.98-1.78-3.76-3.33-5.14-.69-.61-1.43-1.15-2.23-1.61-.36-.21-.72-.4-1.1-.58l-.25-.12c-.09-.03-.18-.07-.26-.12-.03-.03-.02-.05-.06-.07-.12-.06-.25-.1-.38-.14l-.74-.28-2.26-.85-5.18-1.94c-.73-.27-1.46-.56-2.2-.8L20.92.13,20.52,0s-.04,0-.04.03Z"/>
  <path class="cls-1" d="M8.5,42.94c.03.2.17.38.37.44l9.58,3.34.75.26-12.26,5.78-2.79,1.32c.14-.39.29-.78.43-1.17.4-1.09.8-2.18,1.2-3.26.25-.68.49-1.36.75-2.03.23-.6.48-1.19.72-1.78.4-.97.81-1.94,1.26-2.89ZM22.88,45.24l-2.34,1.1c-.06-.13-.18-.24-.32-.28-3.19-1.12-6.39-2.23-9.58-3.35-.45-.16-.91-.32-1.36-.47-.15-.06-.31-.05-.45.03.04-.08.08-.16.13-.24.15-.24.34-.45.51-.68.14-.19.28-.39.42-.58.12-.19.26-.36.41-.52.27-.24.54-.48.82-.71,1.39-1.19,3.03-2.05,4.8-2.51.88-.18,1.78-.2,2.67-.06.78.12,1.54.28,2.31.46,1.79.42,3.55.94,5.3,1.49s3.48,1.14,5.2,1.75l.65.23-9.17,4.33ZM26.03,46.76l.07-1.71,3.62-1.71,2.36-1.11c-.31.89-.61,1.77-.94,2.66-.52,1.42-1.06,2.83-1.63,4.23-.54,1.31-1.1,2.61-1.73,3.88-.5,1.13-1.17,2.17-1.98,3.1-.05.05-.11.1-.16.15.13-3.17.26-6.33.4-9.49h0ZM17.44,58.19c-.02.19-.03.38-.05.58-.13,0-.26,0-.38-.02-.3-.03-.59-.09-.88-.17-.95-.23-1.9-.51-2.83-.8-.71-.21-1.41-.43-2.11-.66l-.11-.04-2.42-.85-3.6-1.26,8.72-4.11,4.42-2.09c-.25,3.14-.51,6.28-.76,9.41ZM20.11,58.72c-.43.06-.87.09-1.3.11h-.22c.25-3.09.5-6.18.75-9.28l.11-1.36,5.41-2.55-.48,11.6c-.49.31-1,.56-1.53.78-.88.34-1.8.58-2.74.7ZM26.63,60.83c1.57-1.11,2.92-2.51,3.98-4.12.32-.47.62-.96.9-1.46.41-.78.78-1.59,1.09-2.42.49-1.22.96-2.46,1.41-3.71.94-2.57,1.83-5.15,2.71-7.74.31-.91.61-1.81.93-2.71,0-.02,0-.03-.02-.04,0,0,0,0,0,0-1.28-.48-2.56-.94-3.84-1.4-2.52-.91-5.04-1.8-7.58-2.64-1.13-.37-2.26-.74-3.4-1.06-.92-.28-1.87-.49-2.83-.6-1.75-.18-3.52,0-5.19.52-1.45.47-2.81,1.17-4.04,2.07-1.08.79-2.06,1.7-2.94,2.71-.36.42-.71.85-1.04,1.29-.14.19-.28.39-.42.59-.15.22-.34.4-.47.63-.18.32-.35.65-.52.97-.01.02.01.04.03.04-.51,1.17-.98,2.35-1.44,3.53-.53,1.33-1.05,2.67-1.57,4-.21.54-.45,1.08-.63,1.63-.3.9-.58,1.81-.87,2.72l-.54,1.71c-.1.32-.23.65-.31.98,0,.02-.01.03-.02.05s.03.06.05.03c.08-.09.19-.15.31-.17-.12.06-.22.15-.31.24,0,.01,0,.03,0,.04,0,0,0,0,0,0l2.42.97,2.93,1.17c.41.16.83.29,1.25.44l3.33,1.15,3.68,1.27,2.18.75s.07.03.11.03c.02,0,.03-.03.05-.03.03,0,.05.01.08.02l.21.06c.14.04.28.07.41.1.58.14,1.17.24,1.76.31,1.32.16,2.66.11,3.97-.15,1.5-.31,2.92-.91,4.18-1.78Z"/>
</svg>