<svg xmlns="http://www.w3.org/2000/svg" width="328" height="76.819" viewBox="0 0 328 76.819"><g transform="translate(4742 1710.758)"><path d="M298.375,65.949l.006.143s-.006.218-.01.256-.011.028-.011.028l-.025.021-.063.031.017-.068c.005-.019.009-.152.009-.152l0-.2a.337.337,0,0,0,.071-.053" transform="translate(-4761 -1713)" fill="#212121"/><path d="M297.658,66.249c-.009.077,0,.434,0,.434l.1,0a2.8,2.8,0,0,1,.018-.466.242.242,0,0,1,.15-.157s.167-.1.061-.1A.313.313,0,0,0,297.658,66.249Z" transform="translate(-4761 -1713)" fill="#212121"/><path d="M298.373,65.936l-.143-.006-.273.006-.012.017-.018.026-.03.065.065-.021c.022-.006.154-.012.154-.012h.2s.039-.048.059-.07" transform="translate(-4761 -1713)" fill="#212121"/><path d="M298.09,66.681c-.077.013-.434.008-.434.008v-.1a2.5,2.5,0,0,0,.465-.022c.109-.026.168-.179.168-.179l.084-.04A.391.391,0,0,1,298.09,66.681Z" transform="translate(-4761 -1713)" fill="#212121"/><path d="M297.661,67.188c-.012-.079,0-.435,0-.435l.1,0a2.779,2.779,0,0,0,.014.466.25.25,0,0,0,.15.155s.168.1.062.1A.31.31,0,0,1,297.661,67.188Z" transform="translate(-4761 -1713)" fill="#212121"/><path d="M298.373,67.488l-.143,0-.273,0-.012-.017-.014-.026-.034-.068s.048.015.065.022a1.287,1.287,0,0,0,.154.013h.2s.033.047.053.07" transform="translate(-4761 -1713)" fill="#212121"/><path d="M298.09,66.748c-.077-.015-.432-.01-.432-.01l0,.1a2.74,2.74,0,0,1,.465.02c.112.028.17.178.17.178l.084.041A.388.388,0,0,0,298.09,66.748Z" transform="translate(-4761 -1713)" fill="#212121"/><path d="M298.375,67.479l.008-.141s-.006-.221-.01-.258-.013-.026-.013-.026l-.025-.021L298.272,67s.012.045.019.064.011.154.011.154v.2a.865.865,0,0,1,.073.054" transform="translate(-4761 -1713)" fill="#212121"/><path d="M296.9,65.949l-.007.143s.007.218.01.256.013.028.013.028l.022.021.067.031-.018-.068a1.4,1.4,0,0,1-.012-.152V66a.453.453,0,0,1-.075-.053" transform="translate(-4761 -1713)" fill="#212121"/><path d="M297.618,66.249c.012.077,0,.434,0,.434l-.1,0a2.744,2.744,0,0,0-.013-.466.246.246,0,0,0-.15-.157s-.169-.1-.062-.1A.312.312,0,0,1,297.618,66.249Z" transform="translate(-4761 -1713)" fill="#212121"/><path d="M296.9,65.936l.142-.006.276.006.009.017.018.026.031.065s-.049-.015-.063-.021-.152-.012-.152-.012h-.2a.537.537,0,0,0-.057-.07" transform="translate(-4761 -1713)" fill="#212121"/><path d="M297.187,66.681c.08.013.435.008.435.008v-.1a2.5,2.5,0,0,1-.465-.022c-.113-.026-.171-.179-.171-.179l-.084-.04A.394.394,0,0,0,297.187,66.681Z" transform="translate(-4761 -1713)" fill="#212121"/><path d="M297.618,67.188c.012-.079,0-.435,0-.435l-.1,0a2.745,2.745,0,0,1-.013.466.26.26,0,0,1-.15.155s-.169.1-.062.1A.312.312,0,0,0,297.618,67.188Z" transform="translate(-4761 -1713)" fill="#212121"/><path d="M296.9,67.488l.142,0,.276,0,.009-.017.018-.026.031-.068s-.049.015-.063.022a1.243,1.243,0,0,1-.152.013h-.2a.618.618,0,0,1-.057.07" transform="translate(-4761 -1713)" fill="#212121"/><path d="M297.184,66.748c.08-.015.434-.01.434-.01l0,.1a2.782,2.782,0,0,0-.468.02c-.11.028-.168.178-.168.178l-.084.041A.379.379,0,0,1,297.184,66.748Z" transform="translate(-4761 -1713)" fill="#212121"/><path d="M296.9,67.479l-.007-.141s.005-.221.007-.258.013-.026.013-.026l.023-.021L297,67a.486.486,0,0,1-.017.064c0,.021-.009.154-.009.154v.2s-.051.034-.075.054" transform="translate(-4761 -1713)" fill="#212121"/><rect width="328" height="45.198" transform="translate(-4742 -1696.723)" fill="#add161"/><rect width="328" height="4.62" transform="translate(-4742 -1651.524)" fill="#435126"/><path d="M105.784,23.784l-.12-.106h-3.785a.084.084,0,0,1-.06.079c-.04.018-.06.072-.06.16q0,1.063.169,3.457t.166,3.617a78.292,78.292,0,0,1-.526,9.362c0,.088.031.132.1.132h4l.12-.132q-.408-4.31-.407-8.591,0-2.127.1-4.108T105.784,23.784Z" transform="translate(-4761 -1713)"/><path d="M119.989,38.567c-.1,0-.144-.107-.144-.319A10.209,10.209,0,0,0,121.1,36.17a6.3,6.3,0,0,0,.563-1.732c.048-.426.087-.746.12-.959v-.425a5.863,5.863,0,0,0-.324-2.011,3.121,3.121,0,0,0-.922-1.386,3.032,3.032,0,0,0-1.1-.626,4.543,4.543,0,0,0-1.15-.133A7.208,7.208,0,0,0,117.1,29q-.634.107-1.161.239a9.655,9.655,0,0,0-1.893.174,15.524,15.524,0,0,0-1.892.519.349.349,0,0,1-.2-.2,2.359,2.359,0,0,1-.06-.254c-.016-.088-.04-.257-.071-.506-.049-.159-.168-.2-.36-.133a10.328,10.328,0,0,1-1.88.373,19.231,19.231,0,0,1-2.048.107v.159a6.312,6.312,0,0,1,.934,2.078,10.833,10.833,0,0,1,.264,2.53,17.025,17.025,0,0,1-.253,2.851q-.25,1.491-.634,3.383h3.809V40.3c0-.106-.017-.527-.048-1.264s-.048-1.327-.048-1.772a10.175,10.175,0,0,1,.072-1.158,9.47,9.47,0,0,1,.383-1.639,6.76,6.76,0,0,1,1.377-2.264A4.1,4.1,0,0,1,115.8,30.71a3.235,3.235,0,0,1,1.042.3,2.031,2.031,0,0,1,.731.623,2.78,2.78,0,0,1,.419.847,3.319,3.319,0,0,1,.131.928,5.135,5.135,0,0,1-.3,1.668,11.953,11.953,0,0,1-.736,1.7,10.574,10.574,0,0,1-1.336,1.682q-.783.807-1.843,1.868h2.643q1.347,0,2.464.053t1.96.16l.143-.213q.312-.6.659-1.265t.563-1.16c-.4.142-.76.254-1.079.333S120.516,38.425,119.989,38.567Z" transform="translate(-4761 -1713)"/><path d="M132.745,29.3q-1.473.054-2.121.054a.273.273,0,0,1-.263-.134q1.7-1.84,3.426-3.682-1.295.081-2.767.187t-2.623.267a.587.587,0,0,0-.263.16q-.528.749-.935,1.455t-1.03,1.827a2.242,2.242,0,0,0-.287.027,2.447,2.447,0,0,1-.336.026h-.838a2.668,2.668,0,0,0-.551.055,3.47,3.47,0,0,0-.18.9q-.036.492-.083,1.228h.909a.541.541,0,0,1,.575.321,11.83,11.83,0,0,0-.407,3.126,8.032,8.032,0,0,0,.563,3.446,4.678,4.678,0,0,0,.994,1.47,2.216,2.216,0,0,0,.958.454h5.534l.192-.161c.063-.25.183-.636.36-1.155q.334-1.155.5-1.907-1.939,1.242-2.323,1.459a3.766,3.766,0,0,1-.731.324,1.9,1.9,0,0,1-.515.108,1.419,1.419,0,0,1-1.019-.588,4,4,0,0,1-.79-1.6,8.447,8.447,0,0,1-.275-2.22,10.706,10.706,0,0,1,.263-2.352c.064-.161.132-.325.2-.494a.321.321,0,0,1,.348-.228q.143,0,1.724.054t2.3.053l.119-.107q.455-1.092.911-2.184a.15.15,0,0,0,0-.24C134.242,29.244,133.726,29.263,132.745,29.3Z" transform="translate(-4761 -1713)"/><path d="M139.524,32.354c.055-.113.132-.25.227-.408a6.23,6.23,0,0,1,1.138-1.161,2.012,2.012,0,0,1,1.234-.422,3.7,3.7,0,0,1,.706.092,2.322,2.322,0,0,1,1.031.659,3.1,3.1,0,0,1,.671.792,2.552,2.552,0,0,1,.12.434.87.87,0,0,1-.036.422.544.544,0,0,1-.216.1q-.144,0-1.293.067T141.213,33c-.352,0-.659-.008-.922-.026a4.957,4.957,0,0,1-.755-.106.314.314,0,0,1-.1-.211A.7.7,0,0,1,139.524,32.354Zm6.143,5.574q-.9.426-1.722.719a3.071,3.071,0,0,1-1.468.346,3.739,3.739,0,0,1-1.939-.465,3.1,3.1,0,0,1-1.132-1.066,2.427,2.427,0,0,1-.349-1.239v-.772a.789.789,0,0,1,.143-.533q.911-.027,1.965-.053t2.827-.027q1.2,0,1.928.027a14.789,14.789,0,0,1,1.617.159.533.533,0,0,1,.216-.106,4.6,4.6,0,0,0,.479-2.13,4.229,4.229,0,0,0-.372-1.826,3.742,3.742,0,0,0-.682-1.078c-.208-.124-.464-.3-.767-.519a2.949,2.949,0,0,0-1.078-.48,6.537,6.537,0,0,0-1.485-.147,11.761,11.761,0,0,0-1.174.09q-.79.089-1.509.177a5.13,5.13,0,0,0-3.1,1.09,5.99,5.99,0,0,0-2.072,2.564,7.9,7.9,0,0,0-.6,2.99,6.946,6.946,0,0,0,.252,1.9,4.565,4.565,0,0,0,.791,1.581,3.532,3.532,0,0,0,1.377,1.063,6.665,6.665,0,0,0,2.564.372c.527-.071.865-.111,1.018-.12s.323-.013.515-.013q.5,0,2.059.147t2.3.146a1.24,1.24,0,0,1,.192-.134l1.773-3.887a.61.61,0,0,0,0-.242A27.026,27.026,0,0,1,145.667,37.928Z" transform="translate(-4761 -1713)"/><path d="M159.495,34.159a4.394,4.394,0,0,1-1.246,1.332,6.105,6.105,0,0,1-1.542.785,5.2,5.2,0,0,1-1.674.267.588.588,0,0,1-.165-.48c0-.124,0-.235.011-.333s.051-.435.13-1.012a5.528,5.528,0,0,1,1.009-2.171,4.964,4.964,0,0,1,2.125-1.837,3.881,3.881,0,0,1,1.411.306,1.574,1.574,0,0,1,.369.893,2.444,2.444,0,0,1,.07.559A3.182,3.182,0,0,1,159.495,34.159Zm1.241,2.784v-.161a8.434,8.434,0,0,0,1.988-1.691,3.919,3.919,0,0,0,.983-1.664,6.5,6.5,0,0,0,.12-1.119,3.445,3.445,0,0,0-.615-2.171,3.157,3.157,0,0,0-1.251-1.039,3.812,3.812,0,0,0-1.41-.253h-.266a1.624,1.624,0,0,0-.409.067q-.24.066-2.323.466a14.077,14.077,0,0,0-2.83.746.848.848,0,0,1-.237-.507,1.116,1.116,0,0,0-.194-.506q-1.149.188-2.383.373a15.293,15.293,0,0,1-2.264.186l-.1.054a8.344,8.344,0,0,1,1.593,1.545,2.824,2.824,0,0,1,.611,1.758q0,.453-.06,3.036t-.059,4.235a.237.237,0,0,0,.1.055h2.922a.313.313,0,0,0,.217-.32,1.438,1.438,0,0,0-.072-.4,1.4,1.4,0,0,1-.073-.32v-.772a.689.689,0,0,1,.264-.64,11.336,11.336,0,0,1,1.917.693q.981.453,2.8,1.545a4.853,4.853,0,0,0,1.868.346,8.778,8.778,0,0,0,1.665-.159,11.448,11.448,0,0,0,1.592-.427,23.666,23.666,0,0,1-2.071-1.345Q161.671,37.769,160.736,36.943Z" transform="translate(-4761 -1713)"/><path d="M170.151,28.306a19.4,19.4,0,0,0-1.953.362,13.6,13.6,0,0,1-2.359.363c-.016.018-.064.027-.143.027a.177.177,0,0,0-.168.08q.383.534.958,1.305a3.518,3.518,0,0,1,.694,1.625v2.158q0,.639-.023,1.824t-.072,1.745c-.081.444-.16.888-.24,1.332a7.07,7.07,0,0,0-.119,1.252l3.833.053V40.3q0-.132-.048-3.744t-.049-5.183q0-.161.108-1.186c.072-.685.108-1.213.108-1.587Q170.678,28.306,170.151,28.306Z" transform="translate(-4761 -1713)"/><path d="M171.373,24.164a15.4,15.4,0,0,0-1.8-.281,8.976,8.976,0,0,0-2.85,2.825c-.033.07-.033.124,0,.159.354.143.71.276,1.065.4s.71.231,1.066.319a11.944,11.944,0,0,1,1.772-1.292,21.747,21.747,0,0,1,1.941-1A1.132,1.132,0,0,0,172.6,25a.7.7,0,0,0-.144-.479A2.75,2.75,0,0,0,171.373,24.164Z" transform="translate(-4761 -1713)"/><path d="M181.51,37.635a11.012,11.012,0,0,1-1.1,1.039,1.23,1.23,0,0,1-.955.213,2.994,2.994,0,0,1-1.8-.6,3.677,3.677,0,0,1-1.218-1.478,4.46,4.46,0,0,1-.393-1.839,4.365,4.365,0,0,1,.573-2.384,4.182,4.182,0,0,1,1.17-1.278,6.094,6.094,0,0,1,1.407-.653,3.531,3.531,0,0,1,1.851.493,3.081,3.081,0,0,1,1.253,1.585,4.208,4.208,0,0,1,.31,1.678A4.841,4.841,0,0,1,181.51,37.635Zm3.109-7.791c-.1-.044-.247-.12-.454-.227a3.305,3.305,0,0,0-1.2-.679,4.867,4.867,0,0,0-1.438-.2,6.707,6.707,0,0,0-2.611.533,11.429,11.429,0,0,0-3.15.986,5.312,5.312,0,0,0-2.168,2.037,5.923,5.923,0,0,0-.838,3.157,5.712,5.712,0,0,0,.838,3.116,4.009,4.009,0,0,0,1.629,1.652,4.687,4.687,0,0,0,2.227.533,4.979,4.979,0,0,0,.6-.027q.19-.027,1.88-.453a22.075,22.075,0,0,0,2.958-.946,4.793,4.793,0,0,0,2.18-1.917,5.943,5.943,0,0,0,.911-3.317,6.5,6.5,0,0,0-.623-2.929A5.18,5.18,0,0,0,184.619,29.844Z" transform="translate(-4761 -1713)"/><path d="M197.249,34.159A4.406,4.406,0,0,1,196,35.491a6.1,6.1,0,0,1-1.543.785,5.194,5.194,0,0,1-1.673.267.585.585,0,0,1-.167-.48q0-.186.012-.333c.008-.1.052-.435.131-1.012a5.513,5.513,0,0,1,1.009-2.171A4.962,4.962,0,0,1,195.9,30.71a3.875,3.875,0,0,1,1.411.306,1.581,1.581,0,0,1,.369.893,2.388,2.388,0,0,1,.07.559A3.2,3.2,0,0,1,197.249,34.159Zm1.241,2.784v-.161a8.474,8.474,0,0,0,1.988-1.691,3.926,3.926,0,0,0,.982-1.664,6.489,6.489,0,0,0,.119-1.119,3.445,3.445,0,0,0-.613-2.171,3.148,3.148,0,0,0-1.253-1.039,3.8,3.8,0,0,0-1.408-.253h-.266a1.583,1.583,0,0,0-.408.067q-.241.066-2.325.466a14.062,14.062,0,0,0-2.829.746.842.842,0,0,1-.237-.507,1.137,1.137,0,0,0-.2-.506q-1.149.188-2.383.373a15.293,15.293,0,0,1-2.264.186l-.1.054a8.336,8.336,0,0,1,1.592,1.545,2.83,2.83,0,0,1,.611,1.758q0,.453-.06,3.036t-.059,4.235a.237.237,0,0,0,.1.055H192.4a.312.312,0,0,0,.215-.32,1.469,1.469,0,0,0-.071-.4,1.378,1.378,0,0,1-.072-.32v-.772a.687.687,0,0,1,.264-.64,11.287,11.287,0,0,1,1.915.693q.982.453,2.8,1.545a4.851,4.851,0,0,0,1.869.346,8.794,8.794,0,0,0,1.665-.159,11.5,11.5,0,0,0,1.593-.427,23.088,23.088,0,0,1-2.072-1.345A25.6,25.6,0,0,1,198.49,36.943Z" transform="translate(-4761 -1713)"/><path d="M212.719,33.16c-.319,0-.824.036-1.509.106s-1.2.107-1.533.107a6.508,6.508,0,0,1-.875-.053,2.177,2.177,0,0,1-.671-.187,1,1,0,0,1-.431-.386,1.017,1.017,0,0,1-.155-.546.909.909,0,0,1,.251-.625c.167-.187.332-.36.492-.52a2.187,2.187,0,0,1,1.461-.507,2.82,2.82,0,0,1,1.245.267,1.408,1.408,0,0,1,.528.519,4.227,4.227,0,0,1,.31.787q.193,0,1.33-.067t1.88-.067a.744.744,0,0,0,.12-.453,1.983,1.983,0,0,0-.108-.559,8.027,8.027,0,0,0-.323-.839,2.05,2.05,0,0,0-1.1-.893,4.673,4.673,0,0,0-1.94-.4,5.6,5.6,0,0,0-1.7.266,12.76,12.76,0,0,0-3.737.453,2.865,2.865,0,0,0-1.892,1.452,4.228,4.228,0,0,0-.456,1.665,2.555,2.555,0,0,0,.36,1.411,2.445,2.445,0,0,0,1.2,1.106,4.5,4.5,0,0,0,1.724.306c.335,0,.579-.005.731-.017s.459-.049.922-.116h1.126a3.261,3.261,0,0,1,.9.12,1.582,1.582,0,0,1,.706.412c.176.107.263.383.263.827a2.906,2.906,0,0,1-.838,1.451,2.311,2.311,0,0,1-1.054.693c-.272.044-.472.076-.6.093a2.575,2.575,0,0,1-.335.026,2.007,2.007,0,0,1-1.461-.559,1.784,1.784,0,0,1-.312-1.038c.032-.2.063-.4.1-.614a.383.383,0,0,0-.1-.265l-3.258-.08c-.016,0-.063.044-.143.132a3.814,3.814,0,0,0-.073.72,3.653,3.653,0,0,0,.36,1.651,2.8,2.8,0,0,0,1.509,1.279,6.91,6.91,0,0,0,2.229.32,4.787,4.787,0,0,1,1.34-.186h1.342a5.5,5.5,0,0,0,1.162-.121,3.09,3.09,0,0,0,.994-.385,3.893,3.893,0,0,0,1.845-1.538,4.283,4.283,0,0,0,.742-2.415,2.825,2.825,0,0,0-.647-2.177A2.867,2.867,0,0,0,212.719,33.16Z" transform="translate(-4761 -1713)"/><path d="M229.691,28.775c-.231.082-.371.087-.419.017a34.164,34.164,0,0,0-6.36.452,13.941,13.941,0,0,0-3.749,1.253,8.521,8.521,0,0,0-1.821,2.344,6.013,6.013,0,0,0-.623,2.77,5.8,5.8,0,0,0,.683,2.77,4.693,4.693,0,0,0,1.88,1.945,1.24,1.24,0,0,0,.575.239,4.536,4.536,0,0,0,.72.053h2.658q1.987,0,3.1-.106a17.969,17.969,0,0,0,1.881-.269l1.532-3.78q-1.5.861-3.165,1.8a6.161,6.161,0,0,1-2.951.941,3.662,3.662,0,0,1-1.96-.561,2.356,2.356,0,0,1-1.075-1.189,6.907,6.907,0,0,1-.5-1.831,5.075,5.075,0,0,1,.777-2.792,7.933,7.933,0,0,1,2.067-2.15,2.276,2.276,0,0,1,.98-.214,7.12,7.12,0,0,1,2.079.586q1.5.585,1.577.612a7.5,7.5,0,0,0,1.183-1.121,18.512,18.512,0,0,0,1.183-1.5,1.074,1.074,0,0,0,.191-.306c.016-.063,0-.1-.048-.1A2.609,2.609,0,0,0,229.691,28.775Z" transform="translate(-4761 -1713)"/><path d="M240.6,34.119q-.169.532-.5,1.4a5.718,5.718,0,0,1-1.233,1.81,4.623,4.623,0,0,1-1.462,1.159,2.661,2.661,0,0,1-.8.214,1.511,1.511,0,0,1-.946-.347,2.652,2.652,0,0,1-.73-.906,3.686,3.686,0,0,1-.551-2.051,5.137,5.137,0,0,1,.479-2.251,5.519,5.519,0,0,1,1.209-1.677,5.35,5.35,0,0,1,1.546-1.026,3.437,3.437,0,0,1,1.976.72,2.427,2.427,0,0,1,1.138,1.438,1.962,1.962,0,0,1,.048.506A3.392,3.392,0,0,1,240.6,34.119Zm3.856-5.434q-.5.168-1.067.351a3.239,3.239,0,0,1-.969.182,1.749,1.749,0,0,1-.8-.187,3,3,0,0,0-.851-.265,6.041,6.041,0,0,0-1.007-.081q-.454,0-1.365.081t-1.341.079h-.719a6.178,6.178,0,0,0-3.066,1.182,5.455,5.455,0,0,0-1.989,2.645,6.774,6.774,0,0,0-.526,2.658,7.581,7.581,0,0,0,.24,1.913A6.163,6.163,0,0,0,231.751,39a3.147,3.147,0,0,0,1.388,1.222,4.609,4.609,0,0,0,1.93.4,6.276,6.276,0,0,0,1.748-.265q1.078,0,1.8-.068a4.673,4.673,0,0,0,1.365-.332c.1,0,.176.075.24.226a1.823,1.823,0,0,0,.119.253l3.474.08c.049,0,.088-.062.119-.186a33,33,0,0,1-.31-4.192,24.114,24.114,0,0,1,.251-3.417,31.7,31.7,0,0,1,.755-3.658l.048-.267C244.675,28.721,244.6,28.685,244.459,28.685Z" transform="translate(-4761 -1713)"/><path d="M254.473,36.85a8.143,8.143,0,0,1-1,1.371,1.6,1.6,0,0,1-.874.48,4.8,4.8,0,0,1-1.581-.413,2.6,2.6,0,0,1-1.126-.973,15.988,15.988,0,0,1,.383-3.782,4.367,4.367,0,0,1,1.653-2.5,1,1,0,0,1,.527-.161,1.511,1.511,0,0,1,.611.12,9.276,9.276,0,0,1,.827.44c.047.071.1.1.155.079s.244.267.564.853a4.032,4.032,0,0,1,.454,1.971A4.746,4.746,0,0,1,254.473,36.85Zm2.143-7.725a3.649,3.649,0,0,0-1.879-.493,4.646,4.646,0,0,0-1.662.32,2.83,2.83,0,0,1-1.458.466,5.659,5.659,0,0,0-1.409.28c-.141-.018-.227-.147-.255-.386a.833.833,0,0,0-.128-.441l-3.761.32q.336,2,.491,4.222t.156,4.622q0,2.025-.1,3.942t-.264,3.942c.017.089.041.143.073.16a10.705,10.705,0,0,1,1.128-.107h.764c.307,0,.619.005.934.013s.635.015.958.015v-.134q0-.746-.1-2.344t-.1-2.451l.143-.159a4.937,4.937,0,0,0,1.486-.241,14.806,14.806,0,0,0,1.557-.586,8.853,8.853,0,0,0,2.455-.878,6.356,6.356,0,0,0,2.072-2.065,6.505,6.505,0,0,0,1.006-3.742,5.443,5.443,0,0,0-.65-2.69A4.163,4.163,0,0,0,256.616,29.125Z" transform="translate(-4761 -1713)"/><path d="M264.234,32.354c.056-.113.132-.25.227-.408a6.232,6.232,0,0,1,1.139-1.161,2.009,2.009,0,0,1,1.233-.422,3.716,3.716,0,0,1,.707.092,2.325,2.325,0,0,1,1.03.659,3.119,3.119,0,0,1,.671.792,2.552,2.552,0,0,1,.12.434.847.847,0,0,1-.037.422.523.523,0,0,1-.215.1q-.144,0-1.293.067T265.923,33c-.351,0-.659-.008-.922-.026a4.957,4.957,0,0,1-.755-.106.313.313,0,0,1-.1-.211A.708.708,0,0,1,264.234,32.354Zm6.143,5.574q-.9.426-1.722.719a3.072,3.072,0,0,1-1.469.346,3.738,3.738,0,0,1-1.938-.465,3.108,3.108,0,0,1-1.132-1.066,2.427,2.427,0,0,1-.349-1.239v-.772a.789.789,0,0,1,.144-.533q.909-.027,1.964-.053t2.827-.027q1.2,0,1.928.027a14.766,14.766,0,0,1,1.617.159.533.533,0,0,1,.216-.106,4.611,4.611,0,0,0,.479-2.13,4.229,4.229,0,0,0-.372-1.826,3.742,3.742,0,0,0-.682-1.078c-.208-.124-.464-.3-.767-.519a2.949,2.949,0,0,0-1.078-.48,6.537,6.537,0,0,0-1.485-.147,11.761,11.761,0,0,0-1.174.09q-.791.089-1.509.177a5.132,5.132,0,0,0-3.1,1.09,5.99,5.99,0,0,0-2.072,2.564,7.875,7.875,0,0,0-.6,2.99,6.907,6.907,0,0,0,.252,1.9,4.546,4.546,0,0,0,.79,1.581,3.535,3.535,0,0,0,1.378,1.063,6.657,6.657,0,0,0,2.562.372q.792-.106,1.018-.12c.152-.009.324-.013.516-.013q.5,0,2.059.147t2.3.146a1.29,1.29,0,0,1,.192-.134l1.773-3.887a.609.609,0,0,0,0-.242A27.149,27.149,0,0,1,270.377,37.928Z" transform="translate(-4761 -1713)"/><path d="M283.362,33.16q-.48,0-1.51.106c-.686.072-1.2.107-1.532.107a6.508,6.508,0,0,1-.875-.053,2.17,2.17,0,0,1-.67-.187,1,1,0,0,1-.432-.386,1.018,1.018,0,0,1-.156-.546.911.911,0,0,1,.252-.625q.252-.281.491-.52a2.189,2.189,0,0,1,1.461-.507,2.824,2.824,0,0,1,1.246.267,1.4,1.4,0,0,1,.527.519,4.155,4.155,0,0,1,.311.787q.192,0,1.33-.067c.758-.044,1.386-.067,1.88-.067a.738.738,0,0,0,.12-.453,1.948,1.948,0,0,0-.108-.559,8.253,8.253,0,0,0-.323-.839,2.05,2.05,0,0,0-1.1-.893,4.673,4.673,0,0,0-1.94-.4,5.6,5.6,0,0,0-1.7.266,12.76,12.76,0,0,0-3.737.453A2.867,2.867,0,0,0,275,31.016a4.224,4.224,0,0,0-.455,1.665,2.563,2.563,0,0,0,.36,1.411,2.447,2.447,0,0,0,1.2,1.106,4.51,4.51,0,0,0,1.725.306c.336,0,.579-.005.731-.017s.459-.049.922-.116h1.126a3.266,3.266,0,0,1,.9.12,1.582,1.582,0,0,1,.706.412c.176.107.263.383.263.827a2.907,2.907,0,0,1-.838,1.451,2.311,2.311,0,0,1-1.054.693c-.272.044-.472.076-.6.093a2.589,2.589,0,0,1-.335.026,2.01,2.01,0,0,1-1.462-.559,1.79,1.79,0,0,1-.311-1.038c.031-.2.063-.4.1-.614a.383.383,0,0,0-.1-.265l-3.258-.08q-.024,0-.144.132a3.807,3.807,0,0,0-.071.72,3.653,3.653,0,0,0,.359,1.651,2.8,2.8,0,0,0,1.509,1.279,6.908,6.908,0,0,0,2.228.32,4.789,4.789,0,0,1,1.341-.186h1.342a5.493,5.493,0,0,0,1.162-.121,3.081,3.081,0,0,0,.994-.385,3.889,3.889,0,0,0,1.845-1.538,4.283,4.283,0,0,0,.742-2.415,2.825,2.825,0,0,0-.647-2.177A2.865,2.865,0,0,0,283.362,33.16Z" transform="translate(-4761 -1713)"/><path d="M292.789,36.423a7.547,7.547,0,0,0-.947-.04c-.431,0-.843.01-1.234.027s-.746.045-1.066.08q-.383,1.123-.97,2.73a21.833,21.833,0,0,1-1.185,2.73h1.868a4.094,4.094,0,0,0,.479-.026A15.119,15.119,0,0,0,292,38.94a6.177,6.177,0,0,0,1.113-2.344C293.08,36.507,292.971,36.45,292.789,36.423Z" transform="translate(-4761 -1713)"/><path d="M307.677,23.784l-.12-.106h-3.786a.083.083,0,0,1-.059.079c-.041.018-.059.072-.059.16q0,1.063.167,3.457t.167,3.617a78.281,78.281,0,0,1-.527,9.362q0,.132.1.132h4l.12-.132q-.408-4.31-.408-8.591,0-2.127.1-4.108T307.677,23.784Z" transform="translate(-4761 -1713)"/><path d="M321.88,38.567c-.1,0-.142-.107-.142-.319a10.205,10.205,0,0,0,1.257-2.078,6.3,6.3,0,0,0,.563-1.732c.048-.426.087-.746.119-.959v-.425a5.888,5.888,0,0,0-.322-2.011,3.131,3.131,0,0,0-.923-1.386,3.045,3.045,0,0,0-1.1-.626,4.548,4.548,0,0,0-1.15-.133,7.21,7.21,0,0,0-1.187.107q-.634.107-1.161.239a9.67,9.67,0,0,0-1.893.174,15.633,15.633,0,0,0-1.893.519.353.353,0,0,1-.2-.2,2.361,2.361,0,0,1-.06-.254c-.016-.088-.04-.257-.072-.506-.047-.159-.167-.2-.359-.133a10.312,10.312,0,0,1-1.88.373,19.236,19.236,0,0,1-2.049.107v.159a6.315,6.315,0,0,1,.935,2.078,10.891,10.891,0,0,1,.263,2.53,17.122,17.122,0,0,1-.251,2.851q-.252,1.491-.635,3.383h3.809V40.3q0-.159-.048-1.264c-.033-.737-.048-1.327-.048-1.772a10.174,10.174,0,0,1,.072-1.158,9.563,9.563,0,0,1,.383-1.639,6.732,6.732,0,0,1,1.378-2.264,4.1,4.1,0,0,1,2.407-1.491,3.235,3.235,0,0,1,1.042.3,2.031,2.031,0,0,1,.731.623,2.754,2.754,0,0,1,.418.847,3.248,3.248,0,0,1,.132.928,5.111,5.111,0,0,1-.3,1.668,11.947,11.947,0,0,1-.735,1.7,10.526,10.526,0,0,1-1.337,1.682q-.781.807-1.842,1.868h2.644q1.346,0,2.463.053t1.959.16l.144-.213q.312-.6.659-1.265t.563-1.16c-.4.142-.759.254-1.078.333S322.408,38.425,321.88,38.567Z" transform="translate(-4761 -1713)"/><path d="M338.518,28.775c-.231.082-.372.087-.42.017a34.179,34.179,0,0,0-6.36.452A13.946,13.946,0,0,0,327.99,30.5a8.521,8.521,0,0,0-1.821,2.344,6.013,6.013,0,0,0-.623,2.77,5.794,5.794,0,0,0,.683,2.77,4.693,4.693,0,0,0,1.88,1.945,1.245,1.245,0,0,0,.575.239,4.527,4.527,0,0,0,.72.053h2.658q1.987,0,3.1-.106a17.969,17.969,0,0,0,1.881-.269l1.532-3.78q-1.5.861-3.165,1.8a6.161,6.161,0,0,1-2.951.941,3.662,3.662,0,0,1-1.96-.561,2.357,2.357,0,0,1-1.076-1.189,6.945,6.945,0,0,1-.5-1.831,5.075,5.075,0,0,1,.777-2.792,7.933,7.933,0,0,1,2.067-2.15,2.276,2.276,0,0,1,.98-.214,7.12,7.12,0,0,1,2.079.586q1.5.585,1.577.612a7.5,7.5,0,0,0,1.183-1.121,18.3,18.3,0,0,0,1.183-1.5,1.073,1.073,0,0,0,.191-.306c.016-.063,0-.1-.048-.1A2.609,2.609,0,0,0,338.518,28.775Z" transform="translate(-4761 -1713)"/><path d="M344.052,38.481a3.2,3.2,0,0,1-.431-.2q-.276-.146-.851-.467t-1.389-.718a6.47,6.47,0,0,0-.515.532q-.2.24-.8.986a1.112,1.112,0,0,1-.264.346.613.613,0,0,0-.215.426,12.7,12.7,0,0,0,1.413.626q.623.228,1.724.653a5.837,5.837,0,0,0,.875-1.092q.491-.746.586-.879A.176.176,0,0,0,344.052,38.481Z" transform="translate(-4761 -1713)"/><path d="M300.9,55.126v-7.24h1.108v1.029a2.611,2.611,0,0,1,2.31-1.193,3.019,3.019,0,0,1,1.207.236,1.9,1.9,0,0,1,.824.616,2.374,2.374,0,0,1,.382.907,6.94,6.94,0,0,1,.069,1.193v4.452h-1.231v-4.4a3.322,3.322,0,0,0-.143-1.122,1.186,1.186,0,0,0-.51-.593,1.616,1.616,0,0,0-.857-.221,2,2,0,0,0-1.357.5,2.451,2.451,0,0,0-.571,1.889v3.954Zm-6.811-3.75a3.134,3.134,0,0,0,.568,2.08,1.875,1.875,0,0,0,2.843,0,3.033,3.033,0,0,0,.575-2.042,2.964,2.964,0,0,0-.592-2,1.829,1.829,0,0,0-1.425-.675,1.779,1.779,0,0,0-1.4.664A2.953,2.953,0,0,0,294.093,51.376Zm-1.018,4.35,1.2.177a1.138,1.138,0,0,0,.417.805,2.053,2.053,0,0,0,1.251.34,2.2,2.2,0,0,0,1.319-.34,1.679,1.679,0,0,0,.629-.955,7.767,7.767,0,0,0,.089-1.575,2.534,2.534,0,0,1-2.01.948,2.742,2.742,0,0,1-2.317-1.077,4.141,4.141,0,0,1-.82-2.584,4.806,4.806,0,0,1,.375-1.912A3.013,3.013,0,0,1,294.3,48.2a2.951,2.951,0,0,1,1.678-.477,2.6,2.6,0,0,1,2.119,1.036v-.872h1.135v6.258a5.93,5.93,0,0,1-.345,2.4,2.523,2.523,0,0,1-1.094,1.114,3.8,3.8,0,0,1-1.842.409,3.479,3.479,0,0,1-2.1-.583A1.966,1.966,0,0,1,293.075,55.726Zm-2.7-.6v-7.24h1.23v7.24Zm0-8.584V45.131h1.23v1.411Zm-7.317,6.423,1.217-.191a1.693,1.693,0,0,0,.57,1.118,1.994,1.994,0,0,0,1.309.388,1.924,1.924,0,0,0,1.258-.344,1.025,1.025,0,0,0,.41-.808.743.743,0,0,0-.362-.654,5.348,5.348,0,0,0-1.258-.416,11.438,11.438,0,0,1-1.876-.59,1.784,1.784,0,0,1-1.063-1.66,1.859,1.859,0,0,1,.222-.9,1.981,1.981,0,0,1,.6-.685,2.489,2.489,0,0,1,.783-.358,3.716,3.716,0,0,1,1.063-.147,4.227,4.227,0,0,1,1.5.245,2.047,2.047,0,0,1,.954.665,2.607,2.607,0,0,1,.424,1.122l-1.2.163a1.311,1.311,0,0,0-.475-.873,1.741,1.741,0,0,0-1.111-.313,2.007,2.007,0,0,0-1.209.28.811.811,0,0,0-.363.654.676.676,0,0,0,.151.43,1.086,1.086,0,0,0,.471.327q.184.067,1.087.313a15.078,15.078,0,0,1,1.822.57,1.841,1.841,0,0,1,.81.644,1.793,1.793,0,0,1,.294,1.05,2.056,2.056,0,0,1-.359,1.155,2.312,2.312,0,0,1-1.036.839,3.788,3.788,0,0,1-1.531.3,3.42,3.42,0,0,1-2.157-.587A2.722,2.722,0,0,1,283.062,52.965Zm-6.183-2.154h4.054a2.446,2.446,0,0,0-.465-1.371,1.887,1.887,0,0,0-1.524-.709,1.954,1.954,0,0,0-1.425.566A2.233,2.233,0,0,0,276.879,50.811Zm4.04,1.983,1.272.157a3.1,3.1,0,0,1-1.114,1.725,3.781,3.781,0,0,1-4.6-.365,3.816,3.816,0,0,1-.933-2.744,3.994,3.994,0,0,1,.943-2.836,3.2,3.2,0,0,1,2.447-1.009,3.11,3.11,0,0,1,2.379.988,3.925,3.925,0,0,1,.923,2.782c0,.073,0,.182-.007.327h-5.414a2.775,2.775,0,0,0,.677,1.827,2.014,2.014,0,0,0,1.517.634,1.889,1.889,0,0,0,1.156-.354A2.346,2.346,0,0,0,280.919,52.794Zm-11.753-1.281a3.137,3.137,0,0,0,.588,2.079,1.773,1.773,0,0,0,1.387.688,1.743,1.743,0,0,0,1.371-.657,3.028,3.028,0,0,0,.564-2.008,3.4,3.4,0,0,0-.574-2.182,1.77,1.77,0,0,0-1.415-.695,1.705,1.705,0,0,0-1.371.668A3.293,3.293,0,0,0,269.166,51.513Zm3.89,3.613v-.914a2.262,2.262,0,0,1-2.031,1.078,2.855,2.855,0,0,1-1.6-.478,3.142,3.142,0,0,1-1.128-1.333,4.6,4.6,0,0,1-.4-1.966,5.124,5.124,0,0,1,.363-1.967,2.849,2.849,0,0,1,1.086-1.354,2.921,2.921,0,0,1,1.621-.47A2.429,2.429,0,0,1,272.14,48a2.461,2.461,0,0,1,.834.719V45.131H274.2v9.995Zm-9.439-1.1.178,1.084a4.567,4.567,0,0,1-.93.109,2.107,2.107,0,0,1-1.039-.211,1.189,1.189,0,0,1-.52-.556,4.39,4.39,0,0,1-.15-1.449V48.84h-.9v-.954h.9V46.093l1.224-.737v2.53h1.237v.954H262.38v4.234a2.157,2.157,0,0,0,.064.675.514.514,0,0,0,.212.238.822.822,0,0,0,.421.089A4,4,0,0,0,263.617,54.028Zm-10.291,1.1v-7.24h1.108v1.029a2.611,2.611,0,0,1,2.31-1.193,3.019,3.019,0,0,1,1.207.236,1.888,1.888,0,0,1,.823.616,2.36,2.36,0,0,1,.383.907,6.943,6.943,0,0,1,.069,1.193v4.452h-1.231v-4.4a3.322,3.322,0,0,0-.143-1.122,1.186,1.186,0,0,0-.51-.593,1.619,1.619,0,0,0-.858-.221,2,2,0,0,0-1.357.5,2.455,2.455,0,0,0-.57,1.889v3.954Zm-2.969-3.634a9.029,9.029,0,0,1-2.01.464,4.608,4.608,0,0,0-1.073.245,1.07,1.07,0,0,0-.486.4,1.085,1.085,0,0,0,.2,1.4,1.606,1.606,0,0,0,1.09.327,2.542,2.542,0,0,0,1.265-.31,1.92,1.92,0,0,0,.814-.849,2.958,2.958,0,0,0,.2-1.227Zm.1,2.74a4.557,4.557,0,0,1-1.316.819,3.808,3.808,0,0,1-1.357.239,2.645,2.645,0,0,1-1.838-.583,1.922,1.922,0,0,1-.643-1.49,1.971,1.971,0,0,1,.243-.971,2,2,0,0,1,.635-.706,3.019,3.019,0,0,1,.886-.4,8.717,8.717,0,0,1,1.093-.184,11.391,11.391,0,0,0,2.195-.423c0-.168.007-.275.007-.321a1.352,1.352,0,0,0-.349-1.056,2.059,2.059,0,0,0-1.4-.416,2.181,2.181,0,0,0-1.282.3,1.856,1.856,0,0,0-.612,1.074l-1.2-.164a2.963,2.963,0,0,1,.54-1.244,2.364,2.364,0,0,1,1.087-.729,4.845,4.845,0,0,1,1.647-.256,4.382,4.382,0,0,1,1.511.218,2,2,0,0,1,.855.549,1.919,1.919,0,0,1,.382.835,6.884,6.884,0,0,1,.062,1.132v1.636a17.153,17.153,0,0,0,.079,2.164,2.711,2.711,0,0,0,.311.87h-1.286A2.623,2.623,0,0,1,250.459,54.232Zm-7.693.894V45.131H244v9.995Zm-6.462-3.58a3.143,3.143,0,0,0,.567,2.066,1.739,1.739,0,0,0,1.374.668,1.779,1.779,0,0,0,1.4-.692,3.272,3.272,0,0,0,.584-2.144,3.2,3.2,0,0,0-.57-2.072,1.721,1.721,0,0,0-1.364-.689,1.775,1.775,0,0,0-1.391.733A3.27,3.27,0,0,0,236.3,51.546ZM235.19,57.9V47.886h1.121v.941a2.745,2.745,0,0,1,.895-.829,2.468,2.468,0,0,1,1.21-.276,2.876,2.876,0,0,1,1.641.477,2.936,2.936,0,0,1,1.073,1.347,4.891,4.891,0,0,1,.362,1.9,4.822,4.822,0,0,1-.4,2,3.044,3.044,0,0,1-2.765,1.838,2.319,2.319,0,0,1-1.1-.26,2.512,2.512,0,0,1-.8-.654V57.9Zm-10.519-6.524a3.139,3.139,0,0,0,.567,2.08,1.876,1.876,0,0,0,2.844,0,3.033,3.033,0,0,0,.574-2.042,2.964,2.964,0,0,0-.591-2,1.831,1.831,0,0,0-1.426-.675,1.778,1.778,0,0,0-1.394.664A2.947,2.947,0,0,0,224.671,51.376Zm-1.019,4.35,1.2.177a1.146,1.146,0,0,0,.417.805,2.057,2.057,0,0,0,1.251.34,2.205,2.205,0,0,0,1.32-.34,1.684,1.684,0,0,0,.629-.955,7.842,7.842,0,0,0,.089-1.575,2.534,2.534,0,0,1-2.01.948,2.744,2.744,0,0,1-2.318-1.077,4.147,4.147,0,0,1-.82-2.584,4.79,4.79,0,0,1,.376-1.912,3.012,3.012,0,0,1,1.09-1.354,2.954,2.954,0,0,1,1.679-.477,2.605,2.605,0,0,1,2.119,1.036v-.872H229.8v6.258a5.927,5.927,0,0,1-.346,2.4,2.521,2.521,0,0,1-1.093,1.114,3.8,3.8,0,0,1-1.843.409,3.475,3.475,0,0,1-2.1-.583A1.967,1.967,0,0,1,223.652,55.726Zm-7.378-.6v-7.24h1.107v1.029a2.612,2.612,0,0,1,2.311-1.193,3.017,3.017,0,0,1,1.206.236,1.892,1.892,0,0,1,.824.616,2.375,2.375,0,0,1,.383.907,7.079,7.079,0,0,1,.068,1.193v4.452h-1.23v-4.4A3.292,3.292,0,0,0,220.8,49.6a1.184,1.184,0,0,0-.509-.593,1.621,1.621,0,0,0-.858-.221,2,2,0,0,0-1.357.5,2.451,2.451,0,0,0-.571,1.889v3.954Zm-2.922,0v-7.24h1.231v7.24Zm0-8.584V45.131h1.231v1.411Zm-6.818,8.584V45.131h1.231v5.7l2.912-2.945h1.592l-2.775,2.686,3.056,4.554h-1.518l-2.4-3.7-.868.832v2.87Zm-2.976-3.634a9.03,9.03,0,0,1-2.01.464,4.621,4.621,0,0,0-1.073.245,1.068,1.068,0,0,0-.485.4,1.083,1.083,0,0,0,.2,1.4,1.609,1.609,0,0,0,1.091.327,2.538,2.538,0,0,0,1.264-.31,1.921,1.921,0,0,0,.814-.849,2.958,2.958,0,0,0,.2-1.227Zm.1,2.74a4.566,4.566,0,0,1-1.315.819,3.816,3.816,0,0,1-1.357.239,2.646,2.646,0,0,1-1.839-.583,1.922,1.922,0,0,1-.643-1.49,1.971,1.971,0,0,1,.243-.971,2,2,0,0,1,.636-.706,3,3,0,0,1,.885-.4,8.707,8.707,0,0,1,1.094-.184,11.377,11.377,0,0,0,2.194-.423c0-.168.007-.275.007-.321a1.348,1.348,0,0,0-.349-1.056,2.057,2.057,0,0,0-1.4-.416,2.181,2.181,0,0,0-1.282.3,1.856,1.856,0,0,0-.612,1.074l-1.2-.164a2.963,2.963,0,0,1,.54-1.244,2.364,2.364,0,0,1,1.087-.729,4.845,4.845,0,0,1,1.647-.256,4.382,4.382,0,0,1,1.511.218,1.994,1.994,0,0,1,.855.549,1.931,1.931,0,0,1,.383.835,6.917,6.917,0,0,1,.061,1.132v1.636a17.153,17.153,0,0,0,.079,2.164,2.711,2.711,0,0,0,.311.87h-1.285A2.6,2.6,0,0,1,203.66,54.232Zm-11.411-3.421H196.3a2.446,2.446,0,0,0-.464-1.371,1.887,1.887,0,0,0-1.525-.709,1.954,1.954,0,0,0-1.425.566A2.237,2.237,0,0,0,192.249,50.811Zm4.04,1.983,1.271.157a3.091,3.091,0,0,1-1.114,1.725,3.781,3.781,0,0,1-4.6-.365,3.816,3.816,0,0,1-.933-2.744,3.994,3.994,0,0,1,.943-2.836,3.2,3.2,0,0,1,2.447-1.009,3.11,3.11,0,0,1,2.379.988,3.921,3.921,0,0,1,.923,2.782c0,.073,0,.182-.007.327H192.18a2.78,2.78,0,0,0,.677,1.827,2.017,2.017,0,0,0,1.518.634,1.888,1.888,0,0,0,1.155-.354A2.354,2.354,0,0,0,196.289,52.794Zm-9.464,2.332v-7.24h1.108v1.1a3,3,0,0,1,.782-1.016,1.376,1.376,0,0,1,.79-.245,2.4,2.4,0,0,1,1.265.4l-.424,1.138a1.769,1.769,0,0,0-.9-.266,1.176,1.176,0,0,0-.724.242,1.313,1.313,0,0,0-.458.672,4.753,4.753,0,0,0-.205,1.431v3.791Zm-6.469-3.675a3.753,3.753,0,0,0,.355,1.882,1.762,1.762,0,0,0,2.967.249,3.171,3.171,0,0,0,.588-2.083,3.225,3.225,0,0,0-.564-2.093,1.718,1.718,0,0,0-1.364-.675,1.771,1.771,0,0,0-1.394.7A3.06,3.06,0,0,0,180.356,51.451Zm.014,3.675h-1.142V45.131h1.23V48.7a2.439,2.439,0,0,1,1.99-.975,3.064,3.064,0,0,1,1.268.269,2.587,2.587,0,0,1,.984.757,3.648,3.648,0,0,1,.6,1.176,4.83,4.83,0,0,1,.219,1.472,4.129,4.129,0,0,1-.923,2.877,2.889,2.889,0,0,1-2.215,1.017,2.311,2.311,0,0,1-2.016-1.071Zm-11.627-3.613a3.137,3.137,0,0,0,.588,2.079,1.775,1.775,0,0,0,1.388.688,1.743,1.743,0,0,0,1.371-.657,3.034,3.034,0,0,0,.563-2.008,3.4,3.4,0,0,0-.574-2.182,1.769,1.769,0,0,0-1.415-.695,1.7,1.7,0,0,0-1.37.668A3.292,3.292,0,0,0,168.743,51.513Zm3.89,3.613v-.914a2.26,2.26,0,0,1-2.03,1.078,2.852,2.852,0,0,1-1.6-.478,3.128,3.128,0,0,1-1.128-1.333,4.587,4.587,0,0,1-.4-1.966,5.124,5.124,0,0,1,.362-1.967,2.856,2.856,0,0,1,1.087-1.354,2.916,2.916,0,0,1,1.62-.47,2.423,2.423,0,0,1,2,.995V45.131h1.224v9.995Zm-12.314,0v-7.24h1.107v1.029a2.614,2.614,0,0,1,2.311-1.193,3.014,3.014,0,0,1,1.206.236,1.892,1.892,0,0,1,.824.616,2.375,2.375,0,0,1,.383.907,7.077,7.077,0,0,1,.068,1.193v4.452h-1.23v-4.4a3.292,3.292,0,0,0-.144-1.122,1.179,1.179,0,0,0-.509-.593,1.622,1.622,0,0,0-.858-.221,2,2,0,0,0-1.357.5,2.455,2.455,0,0,0-.571,1.889v3.954Zm-2.846,0V54.062a2.661,2.661,0,0,1-2.3,1.228,2.938,2.938,0,0,1-1.2-.246,1.978,1.978,0,0,1-.827-.617,2.312,2.312,0,0,1-.379-.91,6.123,6.123,0,0,1-.076-1.145V47.886h1.231V51.9a7.144,7.144,0,0,0,.075,1.295,1.289,1.289,0,0,0,.492.761,1.53,1.53,0,0,0,.93.275,2.036,2.036,0,0,0,1.039-.282,1.573,1.573,0,0,0,.687-.771,3.862,3.862,0,0,0,.2-1.414V47.886h1.23v7.24Zm-11.556-3.62a3.074,3.074,0,0,0,.609,2.082,2.029,2.029,0,0,0,3.055,0,3.147,3.147,0,0,0,.609-2.12,2.984,2.984,0,0,0-.612-2.035,2.032,2.032,0,0,0-3.052,0A3.064,3.064,0,0,0,145.917,51.506Zm-1.264,0a3.727,3.727,0,0,1,1.121-2.98,3.383,3.383,0,0,1,2.283-.8,3.261,3.261,0,0,1,2.447.978,3.714,3.714,0,0,1,.95,2.7,4.783,4.783,0,0,1-.42,2.2,2.965,2.965,0,0,1-1.224,1.244,3.563,3.563,0,0,1-1.753.444,3.267,3.267,0,0,1-2.464-.976A3.882,3.882,0,0,1,144.653,51.506Zm-4.036,3.62v-7.24h1.107v1.1a3.017,3.017,0,0,1,.783-1.016,1.372,1.372,0,0,1,.79-.245,2.4,2.4,0,0,1,1.264.4l-.424,1.138a1.763,1.763,0,0,0-.9-.266,1.179,1.179,0,0,0-.725.242,1.318,1.318,0,0,0-.458.672,4.785,4.785,0,0,0-.205,1.431v3.791Zm-5.847-3.92V50.033l4.245-.007v3.709A7.5,7.5,0,0,1,137,54.9a5.984,5.984,0,0,1-2.133.392,5.708,5.708,0,0,1-2.683-.63,4.187,4.187,0,0,1-1.822-1.824,5.734,5.734,0,0,1-.615-2.666,6.169,6.169,0,0,1,.612-2.723,4.065,4.065,0,0,1,1.76-1.878,5.532,5.532,0,0,1,2.646-.614,5.257,5.257,0,0,1,1.965.351,3.252,3.252,0,0,1,1.377.979,4.315,4.315,0,0,1,.759,1.636l-1.2.327a3.668,3.668,0,0,0-.561-1.2,2.3,2.3,0,0,0-.957-.7,3.514,3.514,0,0,0-1.38-.262,4.078,4.078,0,0,0-1.573.276,2.942,2.942,0,0,0-1.07.726,3.489,3.489,0,0,0-.632.988,5.229,5.229,0,0,0-.383,2.012,4.868,4.868,0,0,0,.462,2.236,2.945,2.945,0,0,0,1.343,1.336,4.166,4.166,0,0,0,1.873.436,4.453,4.453,0,0,0,1.682-.331,4.336,4.336,0,0,0,1.244-.7V51.206Z" transform="translate(-4761 -1713)" fill="#435126"/><path d="M89.058,36.505l0,.01a.477.477,0,0,0-.1-.057L77.925,32.593l-.261-.091,13.187-6.217,2.746-1.3-.42,1.144L91.98,29.4c-.245.667-.485,1.335-.735,2-.23.614-.489,1.22-.74,1.827C90.05,34.326,89.6,35.439,89.058,36.505ZM74.9,33.8l1.209-.57,10.864,3.8,1.408.493c-.062.078-.125.157-.184.237-.151.206-.294.42-.448.624a2.988,2.988,0,0,1-.366.354q-.407.369-.833.713A11.8,11.8,0,0,1,81.8,41.94a7.256,7.256,0,0,1-2.624.06c-.773-.114-1.54-.273-2.3-.45-1.784-.416-3.544-.934-5.29-1.484s-3.47-1.137-5.19-1.749l-.6-.216Zm-3.149-1.519q-.034.854-.07,1.706L68.068,35.7,65.71,36.807c.313-.9.624-1.808.953-2.706.519-1.42,1.058-2.831,1.631-4.229.539-1.314,1.105-2.618,1.741-3.888a11.679,11.679,0,0,1,1.99-3.079c.04-.04.085-.073.126-.113Q71.953,27.54,71.755,32.284ZM80.782,20.3a5.045,5.045,0,0,1,.893.171c.951.232,1.892.514,2.829.8q1.055.32,2.1.654l.112.037,2.415.847,3.6,1.264-8.718,4.11-4.433,2.09.764-9.412c.015-.192.031-.383.047-.575C80.523,20.284,80.653,20.289,80.782,20.3Zm-3.091.029c.428-.059.855-.082,1.285-.106.071,0,.142,0,.213,0q-.378,4.64-.754,9.278-.054.679-.11,1.36l-5.411,2.551.483-11.6a9.361,9.361,0,0,1,1.566-.786A12.066,12.066,0,0,1,77.691,20.325ZM71.16,18.218a15.193,15.193,0,0,0-3.978,4.117c-.319.473-.617.959-.9,1.456a20.768,20.768,0,0,0-1.09,2.414c-.5,1.225-.958,2.462-1.411,3.7-.939,2.567-1.834,5.152-2.71,7.741-.307.908-.609,1.817-.93,2.72a.031.031,0,0,0,.018.039q1.9.707,3.8,1.391c2.512.907,5.031,1.8,7.567,2.638,1.128.372,2.259.737,3.4,1.065a16.011,16.011,0,0,0,2.746.59,12.836,12.836,0,0,0,5.233-.511,14.192,14.192,0,0,0,4.076-2.1,18.331,18.331,0,0,0,2.977-2.761q.555-.636,1.055-1.315c.147-.2.284-.4.428-.6a1.332,1.332,0,0,1,.189-.169,1.713,1.713,0,0,0,.273-.376c.205-.352.355-.736.542-1.1a.023.023,0,0,0-.006-.029c.518-1.2,1-2.411,1.478-3.622q.783-1.971,1.548-3.948c.194-.5.414-1,.577-1.509q.438-1.377.877-2.755.266-.833.53-1.667c.1-.314.227-.631.3-.952,0-.015.01-.031.015-.046.01-.031-.035-.058-.053-.028s-.031.021-.044.033c.021-.021.042-.036.065-.062a.03.03,0,0,0-.014-.045l-2.42-.967-2.935-1.17c-.407-.163-.831-.291-1.246-.435l-3.33-1.147-3.68-1.269-2.18-.752a.327.327,0,0,0-.113-.03c-.015,0-.03.026-.046.027a.384.384,0,0,1-.078-.023l-.208-.057c-.137-.037-.275-.071-.413-.1a15.052,15.052,0,0,0-1.765-.311,12.666,12.666,0,0,0-3.972.151A11.557,11.557,0,0,0,71.16,18.218Z" transform="translate(-4761 -1713)" fill="#0b0b0c"/><path d="M71.452,65.475q-1.607-3.43-3.212-6.862l9.642,3.56,1.576.582a.608.608,0,0,0,.155.024c-.076.357-.175.71-.274,1.064-.395,1.414-.824,2.824-1.295,4.214-.359,1.056-.749,2.1-1.123,3.153q-.6,1.689-1.2,3.377Q73.584,70.03,71.452,65.475Zm-8.933,4.28,5.4-7.673.37-.526q2.517,5.375,5.033,10.75l1.123,2.4-.854-.315-3.543-1.307c-.543-.2-1.092-.389-1.63-.6Q66.971,71.9,65.54,71.29c-.61-.261-1.22-.527-1.82-.814-.218-.1-.437-.211-.648-.33a4.525,4.525,0,0,1-.53-.374Zm2.072-16.094L57.78,62.579a6.914,6.914,0,0,1-.032-1.246,15.836,15.836,0,0,1,.411-2.4c.435-1.907,1.015-3.782,1.628-5.637.625-1.889,1.3-3.762,2-5.623Q63.188,50.667,64.591,53.661Zm1.266,2.705L67.7,60.3l-5.854,8.323-.291.414c-.053-.045-.113-.084-.165-.131s-.1-.086-.149-.13a11.045,11.045,0,0,1-.88-.891,10.74,10.74,0,0,1-2.243-3.761q3.213-4.208,6.427-8.415l.623-.817Zm13.7,2.161q.158.695.258,1.4a3.963,3.963,0,0,1-.014.884c-.018.256-.032.512-.045.769L68.932,57.587l-1.418-.523L63.99,49.535q-.669-1.427-1.336-2.853c1.709.614,3.411,1.249,5.1,1.922,1.922.765,3.833,1.569,5.688,2.487a25.706,25.706,0,0,1,2.512,1.392C78,53.812,79.033,56.23,79.555,58.527ZM68.509,44.513q-1.931-.723-3.871-1.423-1.563-.564-3.129-1.118-.8-.282-1.607-.564l-.072-.025a.032.032,0,0,0-.039.018c-.089.241-.177.482-.266.722q-.948,2.43-1.868,4.869c-.821,2.178-1.63,4.362-2.389,6.562a30.089,30.089,0,0,0-1.452,5.04,15.247,15.247,0,0,0,.613,7.885,11.671,11.671,0,0,0,3.507,4.789,14.011,14.011,0,0,0,2.2,1.47c.346.188.7.363,1.059.525a.585.585,0,0,1,.125.055c.022.018.021.043.039.059l.024.018a.365.365,0,0,0,.1.036l3.624,1.358,5.03,1.885c.7.262,1.391.532,2.1.761l4.681,1.5.376.121a.031.031,0,0,0,.041-.026,1.291,1.291,0,0,0-.086-.39.525.525,0,0,1,.135.33c-.005.035.046.044.059.013l.9-2.229q.6-1.47,1.195-2.941c.187-.458.329-.935.486-1.4q.662-1.965,1.309-3.935c.423-1.286.846-2.573,1.235-3.87.03-.1.058-.2.087-.295a.03.03,0,0,0,.05-.018c.032-.142.056-.285.083-.428.045-.247.121-.487.154-.736s.012-.493.034-.741q.064-.732.076-1.467a19.1,19.1,0,0,0-.284-3.667,15.021,15.021,0,0,0-1.33-4.087,12.716,12.716,0,0,0-2.895-3.8,13.125,13.125,0,0,0-3.182-2.1c-.986-.462-2-.873-3.008-1.277C71.083,45.485,69.8,44.995,68.509,44.513Z" transform="translate(-4761 -1713)" fill="#0b0b0c"/><path d="M56.1,11.546l-5.4,7.671-.371.527L45.306,9,44.184,6.6l.074.027,2.521.929,2.444.9c.321.119.646.232.965.356.593.232,1.181.478,1.769.722.927.385,1.854.776,2.764,1.2a9.7,9.7,0,0,1,.952.488,4.632,4.632,0,0,1,.394.294ZM54.083,25.594l-.625.817q-.345-.738-.69-1.473Q51.847,22.969,50.925,21q2.928-4.159,5.854-8.321l.3-.421a7.335,7.335,0,0,1,1.017.968,11.944,11.944,0,0,1,1.777,2.46,9.353,9.353,0,0,1,.64,1.5Zm-.049,2.046,6.814-8.918c.024.218.042.437.046.657a7.224,7.224,0,0,1-.06,1.029,34.678,34.678,0,0,1-1.284,5.349c-.613,2.027-1.3,4.031-2.029,6.021-.224.615-.458,1.227-.688,1.84Q55.432,30.628,54.034,27.64Zm-4.341-3.928,1.416.522Q52.872,28,54.635,31.768q.654,1.393,1.305,2.788C54.4,34,52.87,33.433,51.349,32.833c-1.787-.706-3.564-1.444-5.3-2.266-.771-.366-1.535-.748-2.279-1.166a9.36,9.36,0,0,1-1.911-1.311,9.565,9.565,0,0,1-2.407-4.252,16.651,16.651,0,0,1-.478-2.082c-.047-.285-.1-.575-.122-.863a5.175,5.175,0,0,1,.045-.765c.008-.13.014-.261.021-.391Zm-2.52-7.884,3.21,6.856q-4.82-1.776-9.639-3.556l-1.576-.581a.662.662,0,0,0-.112-.017c.025-.12.048-.239.079-.36.152-.6.325-1.194.5-1.787q.451-1.515.944-3.02c.144-.441.308-.875.463-1.31l1.167-3.274q.359-1.008.719-2.015Q45.051,11.3,47.173,15.828ZM41.29,2.269a.9.9,0,0,0,.019.157.217.217,0,0,1-.022-.123c.005-.034-.046-.044-.058-.013L40.35,4.451,39.15,7.4c-.176.433-.315.881-.463,1.324q-.646,1.923-1.282,3.85c-.431,1.312-.863,2.625-1.262,3.947-.033.107-.065.215-.1.323a.033.033,0,0,0-.023.025c-.095.426-.241.844-.3,1.278a1.432,1.432,0,0,0-.009.4.953.953,0,0,1,.027.262q-.068.749-.082,1.5a19.526,19.526,0,0,0,.272,3.693,15.228,15.228,0,0,0,1.318,4.124,12.718,12.718,0,0,0,2.886,3.821,12.979,12.979,0,0,0,3.154,2.088c.987.463,2,.875,3.008,1.278,1.271.509,2.55,1,3.831,1.475s2.566.95,3.853,1.414q1.564.565,3.132,1.119.8.283,1.609.564l.073.025a.031.031,0,0,0,.039-.018c.554-1.5,1.146-2.987,1.715-4.482.84-2.21,1.667-4.426,2.454-6.656.359-1.017.71-2.037,1.037-3.065.231-.725.46-1.456.626-2.2a17.54,17.54,0,0,0,.384-4.138,13.7,13.7,0,0,0-.6-3.807A11.582,11.582,0,0,0,61.119,10.4,13.484,13.484,0,0,0,58.89,8.79c-.358-.209-.725-.4-1.1-.583l-.254-.119a1.117,1.117,0,0,1-.263-.116c-.034-.033-.019-.05-.06-.075a2.57,2.57,0,0,0-.376-.141L56.1,7.479l-2.262-.847L48.662,4.691c-.731-.273-1.457-.562-2.2-.8L41.726,2.37l-.4-.127C41.314,2.238,41.289,2.248,41.29,2.269Z" transform="translate(-4761 -1713)" fill="#0b0b0c"/><path d="M29.3,45.178a.525.525,0,0,0,.366.436l9.583,3.344.75.263L27.737,55l-2.794,1.318q.214-.585.43-1.17.6-1.632,1.2-3.263c.249-.678.494-1.358.747-2.034.225-.6.477-1.191.722-1.783C28.441,47.1,28.849,46.126,29.3,45.178Zm14.382,2.306-2.337,1.1a.537.537,0,0,0-.321-.281q-4.791-1.674-9.582-3.345-.679-.237-1.357-.474a.559.559,0,0,0-.454.025c.042-.079.082-.162.13-.238.152-.238.345-.454.513-.681.142-.193.282-.388.421-.583a3.144,3.144,0,0,1,.412-.519c.267-.243.542-.48.823-.707a11.851,11.851,0,0,1,4.8-2.505,7.264,7.264,0,0,1,2.666-.055c.775.116,1.543.276,2.306.455,1.788.419,3.551.94,5.3,1.492s3.477,1.141,5.2,1.753l.651.234Zm3.146,1.522L46.9,47.3l3.618-1.705,2.36-1.113c-.308.887-.612,1.774-.935,2.656-.519,1.42-1.058,2.833-1.631,4.232-.537,1.311-1.1,2.613-1.734,3.881a12.011,12.011,0,0,1-1.981,3.1c-.052.052-.109.1-.162.147Q46.634,53.75,46.831,49.006ZM38.24,60.435c-.016.191-.031.383-.047.575-.127,0-.255-.009-.382-.016a4.9,4.9,0,0,1-.88-.168c-.953-.232-1.9-.514-2.835-.8q-1.061-.321-2.115-.658l-.114-.036-2.416-.847-3.6-1.263,8.724-4.112L39,51.021Q38.622,55.728,38.24,60.435Zm2.676.526c-.433.06-.865.091-1.3.109-.072,0-.144,0-.217,0q.376-4.638.754-9.276l.11-1.362,5.411-2.552-.482,11.6a9.383,9.383,0,0,1-1.533.776A11.957,11.957,0,0,1,40.916,60.961Zm6.513,2.109a15.189,15.189,0,0,0,3.977-4.117c.319-.473.617-.96.9-1.456a20.966,20.966,0,0,0,1.09-2.416c.495-1.225.958-2.464,1.412-3.705.938-2.569,1.834-5.153,2.71-7.743.307-.906.609-1.813.928-2.714a.03.03,0,0,0-.017-.039q-1.917-.714-3.841-1.405c-2.518-.908-5.043-1.8-7.585-2.642-1.127-.373-2.257-.737-3.4-1.064a16.067,16.067,0,0,0-2.835-.6,12.871,12.871,0,0,0-5.193.518,14.116,14.116,0,0,0-4.038,2.069A18.092,18.092,0,0,0,28.6,40.468q-.546.623-1.041,1.289-.216.29-.421.587c-.151.219-.336.4-.471.635-.185.316-.351.648-.518.974-.011.021.011.039.031.039-.509,1.165-.975,2.349-1.445,3.529q-.792,2-1.567,4c-.21.542-.448,1.081-.628,1.633-.3.9-.577,1.813-.866,2.72l-.544,1.711c-.1.323-.225.647-.31.976,0,.017-.011.034-.017.05s.035.059.053.028a.527.527,0,0,1,.308-.165,1.2,1.2,0,0,0-.309.244.03.03,0,0,0,.014.045l2.42.965,2.934,1.169c.408.163.832.292,1.246.435l3.33,1.149,3.681,1.27,2.179.752a.334.334,0,0,0,.112.03c.017,0,.031-.026.047-.027a.285.285,0,0,1,.079.023l.208.057c.137.036.275.071.413.1A15.035,15.035,0,0,0,39.28,65a12.7,12.7,0,0,0,3.972-.153A11.557,11.557,0,0,0,47.429,63.07Z" transform="translate(-4761 -1713)" fill="#0b0b0c"/></g></svg>